<svg width="1067" height="380" viewBox="0 0 1067 380" fill="none" xmlns="http://www.w3.org/2000/svg">
<circle cx="190" cy="190" r="190" fill="#000002"/>
<path d="M156.715 210.686C157.774 209.165 159.337 208.207 161.019 207.881C165.047 206.946 209.894 197.25 242.125 219.693C275.278 242.777 281.165 290.029 281.397 292.031C281.804 295.462 279.578 298.655 276.217 299.474C275.529 299.64 259.084 303.56 238.887 302.078C221.495 300.845 206.637 296.018 194.746 287.738C162.831 265.516 156.16 220.806 155.505 215.781C155.294 214.183 155.633 212.24 156.715 210.686Z" fill="#FC9B00"/>
<path d="M274.642 299.008C276.332 298.583 277.742 297.56 278.683 296.211L155.154 210.199C154.076 211.77 153.723 213.717 153.923 215.316C154.545 220.388 160.928 265.514 192.844 287.737C204.736 296.017 219.634 300.786 237.105 301.907C257.393 303.26 273.949 299.181 274.642 299.008Z" fill="#5C2F18" fill-opacity="0.2"/>
<path d="M95.9154 296.771C96.9741 298.292 98.537 299.25 100.219 299.576C104.247 300.511 149.094 310.207 181.325 287.764C214.478 264.68 220.365 217.428 220.597 215.427C221.004 211.996 218.778 208.802 215.417 207.983C214.729 207.817 198.284 203.897 178.087 205.379C160.695 206.612 145.837 211.439 133.946 219.719C102.031 241.941 95.3595 286.651 94.7046 291.676C94.4937 293.274 94.8333 295.217 95.9154 296.771Z" fill="#FC9B00"/>
<path d="M208.142 210.349C209.832 210.775 211.242 211.797 212.183 213.146L88.6544 299.158C87.5762 297.587 87.2233 295.64 87.4234 294.041C88.0453 288.969 94.428 243.843 126.344 221.62C138.236 213.34 153.134 208.571 170.605 207.45C190.893 206.097 207.449 210.176 208.142 210.349Z" fill="#5C2F18" fill-opacity="0.2"/>
<path d="M190.143 176.822C191.996 176.827 193.673 177.567 194.898 178.765C197.959 181.545 231.451 212.907 231.336 252.182C231.217 292.579 195.711 324.307 194.197 325.637C191.607 327.924 187.714 327.91 185.129 325.613C184.6 325.142 172.019 313.849 161.746 296.397C152.863 281.393 148.378 266.429 148.42 251.939C148.534 213.05 181.504 182.123 185.264 178.725C186.458 177.643 188.249 176.816 190.143 176.822Z" fill="#FC9B00"/>
<path d="M185.696 325.615C187.008 326.763 188.651 327.34 190.295 327.346L190.736 176.823C188.83 176.831 187.029 177.648 185.827 178.722C182.01 182.12 148.534 213.046 148.42 251.937C148.378 266.427 152.933 281.392 161.953 296.397C172.385 313.85 185.159 325.143 185.696 325.615Z" fill="#5C2F18" fill-opacity="0.2"/>
<path d="M203.795 227.316L203.801 227.338L203.806 227.361C204.226 229.178 206.974 240.373 213.605 253.407C220.242 266.452 230.711 281.228 246.519 290.355C262.781 299.743 281.362 301.263 296.184 300.329C310.991 299.396 321.913 296.023 322.75 295.757L322.754 295.756C325.198 294.987 326.617 292.532 326.066 290.02C325.93 289.406 322.515 274.221 313.065 257.953L313.063 257.951C304.963 243.929 294.925 233.431 283.269 226.702C267.616 217.664 249.791 215.921 235.242 216.638C220.704 217.354 209.556 220.521 207.355 221.185L207.353 221.186C206.178 221.539 204.957 222.385 204.271 223.574C203.597 224.741 203.461 226.078 203.795 227.316Z" fill="#771332" stroke="black" stroke-width="2.5"/>
<path d="M185.717 53.4574L185.683 53.4874L185.649 53.5161C183.835 55.0201 172.666 64.5373 161.97 79.1581C151.252 93.8094 141.2 113.324 141.2 134.874C141.2 157.045 151.803 177.032 162.846 191.805C173.865 206.544 185.117 215.816 185.964 216.504L185.969 216.508C188.243 218.362 191.742 218.366 194.034 216.508C194.636 216.018 209.994 203.431 222.55 183.98L222.553 183.975C233.397 167.27 238.8 150.751 238.8 134.874C238.8 113.535 228.959 94.1956 218.354 79.5796C207.77 64.9925 196.608 55.3635 194.373 53.4979L194.37 53.4952C193.309 52.607 191.654 51.8999 189.945 51.8999C188.262 51.8999 186.777 52.5121 185.717 53.4574Z" fill="#771332" stroke="black" stroke-width="5"/>
<path d="M168.703 221.22L168.681 221.214L168.659 221.207C166.875 220.662 155.806 217.445 141.203 216.671C126.587 215.896 108.556 217.575 92.7476 226.702C76.4861 236.09 65.8798 251.422 59.2777 264.725C52.6817 278.015 50.1417 289.16 49.9533 290.018L49.9526 290.021C49.3964 292.523 50.8134 294.979 53.2642 295.758C53.8643 295.947 68.7224 300.582 87.5352 300.532L87.5383 300.532C103.732 300.528 117.842 297.084 129.498 290.354C145.151 281.317 155.573 266.752 162.227 253.793C168.875 240.845 171.707 229.608 172.232 227.369L172.233 227.367C172.515 226.173 172.392 224.693 171.706 223.503C171.032 222.336 169.942 221.55 168.703 221.22Z" fill="#771332" stroke="black" stroke-width="2.5"/>
<mask id="path-11-inside-1_1214_5" fill="white">
<path d="M218.5 209C218.5 224.74 205.74 237.5 190 237.5C174.26 237.5 161.5 224.74 161.5 209C161.5 193.26 174.26 180.5 190 180.5C205.74 180.5 218.5 193.26 218.5 209ZM168.692 209C168.692 220.768 178.232 230.308 190 230.308C201.768 230.308 211.308 220.768 211.308 209C211.308 197.232 201.768 187.692 190 187.692C178.232 187.692 168.692 197.232 168.692 209Z"/>
</mask>
<path d="M218.5 209C218.5 224.74 205.74 237.5 190 237.5C174.26 237.5 161.5 224.74 161.5 209C161.5 193.26 174.26 180.5 190 180.5C205.74 180.5 218.5 193.26 218.5 209ZM168.692 209C168.692 220.768 178.232 230.308 190 230.308C201.768 230.308 211.308 220.768 211.308 209C211.308 197.232 201.768 187.692 190 187.692C178.232 187.692 168.692 197.232 168.692 209Z" fill="white" stroke="black" stroke-width="4" mask="url(#path-11-inside-1_1214_5)"/>
<path d="M33.1323 145.271L33.1393 145.301L33.1452 145.331C33.6349 147.843 36.8475 163.231 44.9082 180.365C52.9851 197.533 65.8069 216.193 85.3784 225.612C105.512 235.302 128.79 233.331 147.513 228.657C166.195 223.994 180.044 216.714 181.113 216.142L181.116 216.14C184.328 214.431 186.287 210.363 185.627 206.77C185.47 205.927 181.508 184.979 169.967 163.857L169.965 163.853C160.082 145.65 147.717 132.983 133.297 126.043C113.917 116.716 91.5952 118.201 73.2251 122.502C54.8901 126.795 40.7628 133.829 37.965 135.278L37.9624 135.28C36.4664 136.052 34.8264 137.585 33.8682 139.576C32.9268 141.532 32.7377 143.569 33.1323 145.271Z" fill="#771332" stroke="black" stroke-width="3.5"/>
<path d="M347.089 145.271L347.082 145.301L347.076 145.331C346.586 147.843 343.373 163.231 335.313 180.365C327.236 197.533 314.414 216.193 294.842 225.612C274.709 235.302 251.43 233.331 232.708 228.657C214.026 223.994 200.177 216.714 199.108 216.142L199.105 216.14C195.893 214.431 193.934 210.363 194.594 206.77C194.751 205.927 198.713 184.979 210.253 163.857L210.256 163.853C220.139 145.65 232.504 132.983 246.924 126.043C266.304 116.716 288.626 118.201 306.996 122.502C325.331 126.795 339.458 133.829 342.256 135.278L342.259 135.28C343.755 136.052 345.395 137.585 346.353 139.576C347.294 141.532 347.483 143.569 347.089 145.271Z" fill="#771332" stroke="black" stroke-width="3.5"/>
<g filter="url(#filter0_d_1214_5)">
<mask id="path-14-inside-2_1214_5" fill="white">
<path d="M209 121.6C209 132.094 200.493 140.6 190 140.6C179.507 140.6 171 132.094 171 121.6C171 111.107 179.507 102.6 190 102.6C200.493 102.6 209 111.107 209 121.6ZM181.153 121.6C181.153 126.486 185.114 130.447 190 130.447C194.886 130.447 198.847 126.486 198.847 121.6C198.847 116.714 194.886 112.753 190 112.753C185.114 112.753 181.153 116.714 181.153 121.6Z"/>
</mask>
<path d="M209 121.6C209 132.094 200.493 140.6 190 140.6C179.507 140.6 171 132.094 171 121.6C171 111.107 179.507 102.6 190 102.6C200.493 102.6 209 111.107 209 121.6ZM181.153 121.6C181.153 126.486 185.114 130.447 190 130.447C194.886 130.447 198.847 126.486 198.847 121.6C198.847 116.714 194.886 112.753 190 112.753C185.114 112.753 181.153 116.714 181.153 121.6Z" fill="white"/>
<path d="M209 121.6C209 132.094 200.493 140.6 190 140.6C179.507 140.6 171 132.094 171 121.6C171 111.107 179.507 102.6 190 102.6C200.493 102.6 209 111.107 209 121.6ZM181.153 121.6C181.153 126.486 185.114 130.447 190 130.447C194.886 130.447 198.847 126.486 198.847 121.6C198.847 116.714 194.886 112.753 190 112.753C185.114 112.753 181.153 116.714 181.153 121.6Z" stroke="black" stroke-width="5" mask="url(#path-14-inside-2_1214_5)"/>
</g>
<path d="M290.7 176.7C290.7 187.193 282.193 195.7 271.7 195.7C261.207 195.7 252.7 187.193 252.7 176.7C252.7 166.207 261.207 157.7 271.7 157.7C282.193 157.7 290.7 166.207 290.7 176.7ZM262.853 176.7C262.853 181.586 266.814 185.547 271.7 185.547C276.586 185.547 280.547 181.586 280.547 176.7C280.547 171.814 276.586 167.853 271.7 167.853C266.814 167.853 262.853 171.814 262.853 176.7Z" fill="white"/>
<g filter="url(#filter1_d_1214_5)">
<mask id="path-16-inside-3_1214_5" fill="white">
<path d="M290.7 176.7C290.7 187.193 282.193 195.7 271.7 195.7C261.207 195.7 252.7 187.193 252.7 176.7C252.7 166.207 261.207 157.7 271.7 157.7C282.193 157.7 290.7 166.207 290.7 176.7ZM262.853 176.7C262.853 181.586 266.814 185.547 271.7 185.547C276.586 185.547 280.547 181.586 280.547 176.7C280.547 171.814 276.586 167.853 271.7 167.853C266.814 167.853 262.853 171.814 262.853 176.7Z"/>
</mask>
<path d="M290.7 176.7C290.7 187.193 282.193 195.7 271.7 195.7C261.207 195.7 252.7 187.193 252.7 176.7C252.7 166.207 261.207 157.7 271.7 157.7C282.193 157.7 290.7 166.207 290.7 176.7ZM262.853 176.7C262.853 181.586 266.814 185.547 271.7 185.547C276.586 185.547 280.547 181.586 280.547 176.7C280.547 171.814 276.586 167.853 271.7 167.853C266.814 167.853 262.853 171.814 262.853 176.7Z" fill="white"/>
<path d="M290.7 176.7C290.7 187.193 282.193 195.7 271.7 195.7C261.207 195.7 252.7 187.193 252.7 176.7C252.7 166.207 261.207 157.7 271.7 157.7C282.193 157.7 290.7 166.207 290.7 176.7ZM262.853 176.7C262.853 181.586 266.814 185.547 271.7 185.547C276.586 185.547 280.547 181.586 280.547 176.7C280.547 171.814 276.586 167.853 271.7 167.853C266.814 167.853 262.853 171.814 262.853 176.7Z" stroke="black" stroke-width="5" mask="url(#path-16-inside-3_1214_5)"/>
</g>
<g filter="url(#filter2_d_1214_5)">
<mask id="path-17-inside-4_1214_5" fill="white">
<path d="M129.2 176.7C129.2 187.193 120.693 195.7 110.2 195.7C99.7065 195.7 91.2 187.193 91.2 176.7C91.2 166.207 99.7065 157.7 110.2 157.7C120.693 157.7 129.2 166.207 129.2 176.7ZM101.353 176.7C101.353 181.586 105.314 185.547 110.2 185.547C115.086 185.547 119.047 181.586 119.047 176.7C119.047 171.814 115.086 167.853 110.2 167.853C105.314 167.853 101.353 171.814 101.353 176.7Z"/>
</mask>
<path d="M129.2 176.7C129.2 187.193 120.693 195.7 110.2 195.7C99.7065 195.7 91.2 187.193 91.2 176.7C91.2 166.207 99.7065 157.7 110.2 157.7C120.693 157.7 129.2 166.207 129.2 176.7ZM101.353 176.7C101.353 181.586 105.314 185.547 110.2 185.547C115.086 185.547 119.047 181.586 119.047 176.7C119.047 171.814 115.086 167.853 110.2 167.853C105.314 167.853 101.353 171.814 101.353 176.7Z" fill="white"/>
<path d="M129.2 176.7C129.2 187.193 120.693 195.7 110.2 195.7C99.7065 195.7 91.2 187.193 91.2 176.7C91.2 166.207 99.7065 157.7 110.2 157.7C120.693 157.7 129.2 166.207 129.2 176.7ZM101.353 176.7C101.353 181.586 105.314 185.547 110.2 185.547C115.086 185.547 119.047 181.586 119.047 176.7C119.047 171.814 115.086 167.853 110.2 167.853C105.314 167.853 101.353 171.814 101.353 176.7Z" stroke="black" stroke-width="5" mask="url(#path-17-inside-4_1214_5)"/>
</g>
<g filter="url(#filter3_d_1214_5)">
<mask id="path-18-inside-5_1214_5" fill="white">
<path d="M129.2 258.4C129.2 268.893 120.693 277.4 110.2 277.4C99.7065 277.4 91.2 268.893 91.2 258.4C91.2 247.906 99.7065 239.4 110.2 239.4C120.693 239.4 129.2 247.906 129.2 258.4ZM101.353 258.4C101.353 263.286 105.314 267.247 110.2 267.247C115.086 267.247 119.047 263.286 119.047 258.4C119.047 253.514 115.086 249.553 110.2 249.553C105.314 249.553 101.353 253.514 101.353 258.4Z"/>
</mask>
<path d="M129.2 258.4C129.2 268.893 120.693 277.4 110.2 277.4C99.7065 277.4 91.2 268.893 91.2 258.4C91.2 247.906 99.7065 239.4 110.2 239.4C120.693 239.4 129.2 247.906 129.2 258.4ZM101.353 258.4C101.353 263.286 105.314 267.247 110.2 267.247C115.086 267.247 119.047 263.286 119.047 258.4C119.047 253.514 115.086 249.553 110.2 249.553C105.314 249.553 101.353 253.514 101.353 258.4Z" fill="white"/>
<path d="M129.2 258.4C129.2 268.893 120.693 277.4 110.2 277.4C99.7065 277.4 91.2 268.893 91.2 258.4C91.2 247.906 99.7065 239.4 110.2 239.4C120.693 239.4 129.2 247.906 129.2 258.4ZM101.353 258.4C101.353 263.286 105.314 267.247 110.2 267.247C115.086 267.247 119.047 263.286 119.047 258.4C119.047 253.514 115.086 249.553 110.2 249.553C105.314 249.553 101.353 253.514 101.353 258.4Z" stroke="black" stroke-width="5" mask="url(#path-18-inside-5_1214_5)"/>
</g>
<g filter="url(#filter4_d_1214_5)">
<mask id="path-19-inside-6_1214_5" fill="white">
<path d="M290.7 258.4C290.7 268.893 282.193 277.4 271.7 277.4C261.207 277.4 252.7 268.893 252.7 258.4C252.7 247.906 261.207 239.4 271.7 239.4C282.193 239.4 290.7 247.906 290.7 258.4ZM262.853 258.4C262.853 263.286 266.814 267.247 271.7 267.247C276.586 267.247 280.547 263.286 280.547 258.4C280.547 253.514 276.586 249.553 271.7 249.553C266.814 249.553 262.853 253.514 262.853 258.4Z"/>
</mask>
<path d="M290.7 258.4C290.7 268.893 282.193 277.4 271.7 277.4C261.207 277.4 252.7 268.893 252.7 258.4C252.7 247.906 261.207 239.4 271.7 239.4C282.193 239.4 290.7 247.906 290.7 258.4ZM262.853 258.4C262.853 263.286 266.814 267.247 271.7 267.247C276.586 267.247 280.547 263.286 280.547 258.4C280.547 253.514 276.586 249.553 271.7 249.553C266.814 249.553 262.853 253.514 262.853 258.4Z" fill="white"/>
<path d="M290.7 258.4C290.7 268.893 282.193 277.4 271.7 277.4C261.207 277.4 252.7 268.893 252.7 258.4C252.7 247.906 261.207 239.4 271.7 239.4C282.193 239.4 290.7 247.906 290.7 258.4ZM262.853 258.4C262.853 263.286 266.814 267.247 271.7 267.247C276.586 267.247 280.547 263.286 280.547 258.4C280.547 253.514 276.586 249.553 271.7 249.553C266.814 249.553 262.853 253.514 262.853 258.4Z" stroke="black" stroke-width="5" mask="url(#path-19-inside-6_1214_5)"/>
</g>
<path d="M527.824 211.384V219.448C527.824 232.589 524.88 242.701 518.992 249.784C513.189 256.781 504.571 260.28 493.136 260.28C481.701 260.28 473.04 256.781 467.152 249.784C461.349 242.701 458.448 232.589 458.448 219.448V211.384C458.448 198.243 461.349 188.173 467.152 181.176C473.04 174.179 481.701 170.68 493.136 170.68C504.571 170.68 513.189 174.179 518.992 181.176C524.88 188.173 527.824 198.243 527.824 211.384ZM511.44 204.984C511.44 197.475 510.8 191.587 509.52 187.32C508.24 182.968 506.235 179.853 503.504 177.976C500.859 176.099 497.403 175.16 493.136 175.16C488.955 175.16 485.499 176.099 482.768 177.976C480.037 179.853 478.032 182.968 476.752 187.32C475.472 191.587 474.832 197.475 474.832 204.984V225.848C474.832 233.272 475.472 239.16 476.752 243.512C478.032 247.864 480.037 251.021 482.768 252.984C485.499 254.861 488.955 255.8 493.136 255.8C497.403 255.8 500.859 254.861 503.504 252.984C506.235 251.021 508.24 247.864 509.52 243.512C510.8 239.16 511.44 233.272 511.44 225.848V204.984ZM581.434 197.688V194.104H605.242V204.6C610.447 196.749 616.634 192.824 623.802 192.824C626.447 192.824 629.007 193.677 631.482 195.384C633.957 197.005 636.005 200.077 637.626 204.6L626.234 210.744C625.039 207.245 623.631 204.899 622.01 203.704C620.474 202.424 618.81 201.784 617.018 201.784C615.141 201.784 613.306 202.381 611.514 203.576C609.722 204.771 607.887 206.989 606.01 210.232V248.248C606.01 251.149 606.138 252.899 606.394 253.496C606.65 254.008 607.461 254.349 608.826 254.52L618.426 255.416V259H581.434V255.416L588.474 254.52C589.839 254.349 590.65 254.008 590.906 253.496C591.162 252.899 591.29 251.149 591.29 248.248V204.856C591.29 201.955 591.162 200.248 590.906 199.736C590.65 199.139 589.839 198.755 588.474 198.584L581.434 197.688Z" fill="#FC9B00"/>
<path d="M712.668 197.304C708.572 197.304 705.5 199.267 703.452 203.192C701.489 207.032 700.508 213.517 700.508 222.648V230.328C700.508 239.373 701.66 245.901 703.964 249.912C706.268 253.837 710.023 255.8 715.228 255.8C719.068 255.8 722.183 254.733 724.572 252.6C727.047 250.381 728.455 246.669 728.796 241.464L736.988 243.768C735.452 249.741 732.636 254.008 728.54 256.568C724.529 259.043 719.793 260.28 714.332 260.28C704.519 260.28 697.137 257.336 692.188 251.448C687.239 245.475 684.764 237.581 684.764 227.768V225.208C684.764 215.395 687.153 207.544 691.932 201.656C696.711 195.768 703.623 192.824 712.668 192.824C718.641 192.824 723.505 194.019 727.26 196.408C731.1 198.712 733.788 201.784 735.324 205.624C736.945 209.379 737.372 213.432 736.604 217.784L722.524 219.832C723.463 212.664 723.079 207.117 721.372 203.192C719.665 199.267 716.764 197.304 712.668 197.304ZM862.035 255.416V259H827.603V255.416L834.643 254.52C836.008 254.349 836.819 254.008 837.075 253.496C837.331 252.899 837.459 251.149 837.459 248.248V215.992C837.459 210.104 836.563 205.837 834.771 203.192C833.064 200.461 830.504 199.096 827.091 199.096C825.64 199.096 823.934 199.48 821.971 200.248C820.094 200.931 818.174 202.211 816.211 204.088C814.334 205.965 812.67 208.739 811.219 212.408V248.248C811.219 251.149 811.347 252.899 811.603 253.496C811.859 254.008 812.67 254.349 814.035 254.52L821.075 255.416V259H786.643V255.416L793.683 254.52C795.048 254.349 795.859 254.008 796.115 253.496C796.371 252.899 796.499 251.149 796.499 248.248V175.032C796.499 172.131 796.371 170.424 796.115 169.912C795.859 169.315 795.048 168.931 793.683 168.76L786.643 167.864V164.28H811.219V204.088C813.694 200.163 816.766 197.304 820.435 195.512C824.19 193.72 827.944 192.824 831.699 192.824C838.014 192.824 843.006 194.829 846.675 198.84C850.344 202.851 852.179 208.525 852.179 215.864V248.248C852.179 251.149 852.307 252.899 852.563 253.496C852.819 254.008 853.63 254.349 854.995 254.52L862.035 255.416ZM925.806 183.096C923.161 183.096 921.027 182.285 919.406 180.664C917.785 178.957 916.974 176.781 916.974 174.136C916.974 171.491 917.785 169.357 919.406 167.736C921.027 166.115 923.161 165.304 925.806 165.304C928.366 165.304 930.499 166.115 932.206 167.736C933.913 169.357 934.766 171.491 934.766 174.136C934.766 176.781 933.913 178.957 932.206 180.664C930.499 182.285 928.366 183.096 925.806 183.096ZM908.654 197.688V194.104H933.23V248.248C933.23 251.149 933.358 252.899 933.614 253.496C933.87 254.008 934.681 254.349 936.046 254.52L943.086 255.416V259H908.654V255.416L915.694 254.52C917.059 254.349 917.87 254.008 918.126 253.496C918.382 252.899 918.51 251.149 918.51 248.248V204.856C918.51 201.955 918.382 200.248 918.126 199.736C917.87 199.139 917.059 198.755 915.694 198.584L908.654 197.688Z" fill="#7D0B0B"/>
<path d="M1060.16 255.416V259H1036.35V248.376C1033.96 252.301 1031.27 255.288 1028.29 257.336C1025.38 259.299 1021.93 260.28 1017.92 260.28C1010.75 260.28 1005.03 257.464 1000.77 251.832C996.584 246.115 994.493 238.136 994.493 227.896V225.336C994.493 215.437 996.925 207.544 1001.79 201.656C1006.74 195.768 1013.48 192.824 1022.01 192.824C1027.13 192.824 1031.66 194.104 1035.58 196.664V175.032C1035.58 172.131 1035.45 170.424 1035.2 169.912C1034.94 169.315 1034.13 168.931 1032.77 168.76L1025.73 167.864V164.28H1050.3V248.248C1050.3 251.149 1050.43 252.899 1050.69 253.496C1050.94 254.008 1051.75 254.349 1053.12 254.52L1060.16 255.416ZM1010.24 231.736C1010.24 239.672 1011.22 245.475 1013.18 249.144C1015.14 252.813 1017.83 254.648 1021.25 254.648C1023.38 254.648 1025.6 253.795 1027.9 252.088C1030.29 250.296 1032.85 246.712 1035.58 241.336V202.68C1032.34 199.437 1028.37 197.816 1023.68 197.816C1018.98 197.816 1015.57 199.949 1013.44 204.216C1011.3 208.397 1010.24 214.157 1010.24 221.496V231.736Z" fill="#000002"/>
<defs>
<filter id="filter0_d_1214_5" x="167" y="102.6" width="46" height="46" filterUnits="userSpaceOnUse" color-interpolation-filters="sRGB">
<feFlood flood-opacity="0" result="BackgroundImageFix"/>
<feColorMatrix in="SourceAlpha" type="matrix" values="0 0 0 0 0 0 0 0 0 0 0 0 0 0 0 0 0 0 127 0" result="hardAlpha"/>
<feOffset dy="4"/>
<feGaussianBlur stdDeviation="2"/>
<feComposite in2="hardAlpha" operator="out"/>
<feColorMatrix type="matrix" values="0 0 0 0 0 0 0 0 0 0 0 0 0 0 0 0 0 0 0.25 0"/>
<feBlend mode="normal" in2="BackgroundImageFix" result="effect1_dropShadow_1214_5"/>
<feBlend mode="normal" in="SourceGraphic" in2="effect1_dropShadow_1214_5" result="shape"/>
</filter>
<filter id="filter1_d_1214_5" x="248.7" y="157.7" width="46" height="46" filterUnits="userSpaceOnUse" color-interpolation-filters="sRGB">
<feFlood flood-opacity="0" result="BackgroundImageFix"/>
<feColorMatrix in="SourceAlpha" type="matrix" values="0 0 0 0 0 0 0 0 0 0 0 0 0 0 0 0 0 0 127 0" result="hardAlpha"/>
<feOffset dy="4"/>
<feGaussianBlur stdDeviation="2"/>
<feComposite in2="hardAlpha" operator="out"/>
<feColorMatrix type="matrix" values="0 0 0 0 0 0 0 0 0 0 0 0 0 0 0 0 0 0 0.25 0"/>
<feBlend mode="normal" in2="BackgroundImageFix" result="effect1_dropShadow_1214_5"/>
<feBlend mode="normal" in="SourceGraphic" in2="effect1_dropShadow_1214_5" result="shape"/>
</filter>
<filter id="filter2_d_1214_5" x="87.2" y="157.7" width="46" height="46" filterUnits="userSpaceOnUse" color-interpolation-filters="sRGB">
<feFlood flood-opacity="0" result="BackgroundImageFix"/>
<feColorMatrix in="SourceAlpha" type="matrix" values="0 0 0 0 0 0 0 0 0 0 0 0 0 0 0 0 0 0 127 0" result="hardAlpha"/>
<feOffset dy="4"/>
<feGaussianBlur stdDeviation="2"/>
<feComposite in2="hardAlpha" operator="out"/>
<feColorMatrix type="matrix" values="0 0 0 0 0 0 0 0 0 0 0 0 0 0 0 0 0 0 0.25 0"/>
<feBlend mode="normal" in2="BackgroundImageFix" result="effect1_dropShadow_1214_5"/>
<feBlend mode="normal" in="SourceGraphic" in2="effect1_dropShadow_1214_5" result="shape"/>
</filter>
<filter id="filter3_d_1214_5" x="87.2" y="239.4" width="46" height="46" filterUnits="userSpaceOnUse" color-interpolation-filters="sRGB">
<feFlood flood-opacity="0" result="BackgroundImageFix"/>
<feColorMatrix in="SourceAlpha" type="matrix" values="0 0 0 0 0 0 0 0 0 0 0 0 0 0 0 0 0 0 127 0" result="hardAlpha"/>
<feOffset dy="4"/>
<feGaussianBlur stdDeviation="2"/>
<feComposite in2="hardAlpha" operator="out"/>
<feColorMatrix type="matrix" values="0 0 0 0 0 0 0 0 0 0 0 0 0 0 0 0 0 0 0.25 0"/>
<feBlend mode="normal" in2="BackgroundImageFix" result="effect1_dropShadow_1214_5"/>
<feBlend mode="normal" in="SourceGraphic" in2="effect1_dropShadow_1214_5" result="shape"/>
</filter>
<filter id="filter4_d_1214_5" x="248.7" y="239.4" width="46" height="46" filterUnits="userSpaceOnUse" color-interpolation-filters="sRGB">
<feFlood flood-opacity="0" result="BackgroundImageFix"/>
<feColorMatrix in="SourceAlpha" type="matrix" values="0 0 0 0 0 0 0 0 0 0 0 0 0 0 0 0 0 0 127 0" result="hardAlpha"/>
<feOffset dy="4"/>
<feGaussianBlur stdDeviation="2"/>
<feComposite in2="hardAlpha" operator="out"/>
<feColorMatrix type="matrix" values="0 0 0 0 0 0 0 0 0 0 0 0 0 0 0 0 0 0 0.25 0"/>
<feBlend mode="normal" in2="BackgroundImageFix" result="effect1_dropShadow_1214_5"/>
<feBlend mode="normal" in="SourceGraphic" in2="effect1_dropShadow_1214_5" result="shape"/>
</filter>
</defs>
</svg>
