<svg width="150" height="127" viewBox="0 0 150 127" fill="none" xmlns="http://www.w3.org/2000/svg">
<path d="M142.733 100.427C143.73 100.411 144.594 100.43 145.293 100.49C145.978 100.549 146.552 100.651 146.943 100.823C148.273 101.409 149.128 102.153 149.589 102.981C150.052 103.816 150.089 104.689 149.871 105.466C149.655 106.235 149.19 106.913 148.64 107.4C148.096 107.881 147.417 108.217 146.754 108.214C145.72 108.208 136.322 107.873 124.637 108.865C112.961 109.856 99.0712 112.168 88.9842 117.416C86.5207 119.975 84.5439 121.967 82.4168 123.429C80.3339 124.86 75.5639 126.322 75.0995 126.322C74.6338 126.322 69.6653 124.86 67.5829 123.429C65.4558 121.967 63.479 119.975 61.0155 117.416C50.9285 112.168 37.0386 109.856 25.3631 108.865C13.6779 107.873 4.28069 108.208 3.24595 108.214C2.58304 108.217 1.90409 107.881 1.36021 107.4C0.809352 106.913 0.344764 106.235 0.128761 105.466C-0.0893674 104.688 -0.0524094 103.816 0.410988 102.981C0.871321 102.153 1.72607 101.409 3.0565 100.823C3.44744 100.651 4.02158 100.549 4.70689 100.49C5.40596 100.43 6.2697 100.411 7.26646 100.427C9.26104 100.457 11.8243 100.628 14.7518 100.907C20.6092 101.465 27.9566 102.457 35.1971 103.638C42.4371 104.818 49.5815 106.188 55.0321 107.502C57.7553 108.158 60.0676 108.804 61.7606 109.407C62.6056 109.709 63.3117 110.004 63.8407 110.292C64.1048 110.436 64.3356 110.584 64.5213 110.736C64.7026 110.885 64.869 111.06 64.9667 111.267C65.8143 113.057 67.8719 115.042 70.035 116.622C71.1074 117.405 72.187 118.075 73.1239 118.559C73.9042 118.961 74.6506 119.254 75.0995 119.355C75.5484 119.254 76.0955 118.961 76.8758 118.559C77.8129 118.075 78.8931 117.405 79.9657 116.622C82.1288 115.042 84.1855 113.057 85.0331 111.267C85.1308 111.06 85.297 110.885 85.4784 110.736C85.6642 110.584 85.8957 110.436 86.16 110.292C86.689 110.004 87.3942 109.708 88.2391 109.407C89.9323 108.804 92.2452 108.158 94.9686 107.502C100.419 106.188 107.564 104.818 114.804 103.638C122.044 102.457 129.391 101.465 135.248 100.907C138.175 100.628 140.739 100.457 142.733 100.427ZM8.03013 95.2266C9.11255 95.159 10.6467 95.1668 12.5204 95.2529C16.2726 95.4254 21.4362 95.9156 27.1815 96.7773C38.6485 98.4974 52.5104 101.709 62.1209 106.866C62.1272 106.869 62.1343 106.873 62.1405 106.876C62.6994 107.168 63.237 107.47 63.7489 107.782L63.2333 108.64C62.7296 108.342 62.2102 108.049 61.6776 107.763L60.8827 107.361C52.5101 103.281 39.2708 101.135 27.7196 100.033C21.7715 99.4659 16.2932 99.1771 12.1981 99.04C8.08522 98.9024 5.40134 98.9186 5.01743 98.9541C4.78074 98.9759 4.48973 98.9719 4.25864 98.8223C4.12517 98.7355 4.02166 98.606 3.97349 98.4453C3.92888 98.2959 3.94184 98.1545 3.96665 98.0479C4.01403 97.8449 4.13108 97.6531 4.24009 97.501C4.35649 97.3386 4.50062 97.1715 4.65025 97.0127C4.95025 96.6944 5.30306 96.3764 5.57505 96.1416C5.71183 96.0235 5.83099 95.9242 5.91587 95.8545C5.9352 95.8386 5.95295 95.8233 5.9686 95.8105C6.05703 95.678 6.18033 95.5974 6.25864 95.5547C6.39301 95.4815 6.55425 95.4301 6.71568 95.3916C7.04423 95.3134 7.49269 95.2601 8.03013 95.2266ZM138.08 95.2529C139.954 95.1668 141.488 95.159 142.57 95.2266C143.108 95.2601 143.556 95.3134 143.885 95.3916C144.046 95.4301 144.207 95.4816 144.342 95.5547C144.42 95.5974 144.543 95.6781 144.632 95.8105C144.647 95.8232 144.665 95.8387 144.684 95.8545C144.769 95.9241 144.889 96.0236 145.025 96.1416C145.297 96.3763 145.65 96.6945 145.95 97.0127C146.1 97.1714 146.244 97.3387 146.36 97.501C146.469 97.653 146.586 97.845 146.634 98.0479C146.658 98.1545 146.671 98.2958 146.627 98.4453C146.579 98.6061 146.475 98.7355 146.342 98.8223C146.11 98.972 145.82 98.9759 145.583 98.9541C145.198 98.9186 142.515 98.9024 138.402 99.04C134.307 99.1771 128.829 99.4659 122.881 100.033C111.329 101.135 98.0901 103.281 89.7176 107.361L88.9227 107.763C88.3899 108.049 87.8708 108.342 87.367 108.64L86.8514 107.782C87.3634 107.47 87.9008 107.168 88.4598 106.876C88.4661 106.873 88.473 106.87 88.4793 106.866C98.0899 101.709 111.952 98.4974 123.419 96.7773C129.164 95.9156 134.328 95.4254 138.08 95.2529ZM14.8397 90.2139C18.6271 90.2509 23.7454 90.533 29.4803 91.3662C40.9387 93.0311 54.9202 96.9073 65.66 105.497L65.0946 106.319C53.6216 99.5795 39.7959 96.2867 28.5077 94.71C17.2207 93.1334 8.5241 93.2797 7.33872 93.3828C7.01307 93.4112 6.7341 93.4128 6.50474 93.3857C6.28713 93.36 6.0538 93.3012 5.87095 93.1592C5.65087 92.9879 5.55327 92.7334 5.59068 92.4707C5.62183 92.2529 5.73938 92.0695 5.84653 91.9365C6.06806 91.6618 6.42025 91.3916 6.7938 91.1621C7.17594 90.9274 7.62011 90.7108 8.0565 90.5557C8.2204 90.4976 8.50697 90.4537 8.84068 90.416C9.19665 90.3759 9.66703 90.3364 10.2381 90.3037C11.3822 90.2382 12.9464 90.1954 14.8397 90.2139ZM134.613 90.2139C136.506 90.1954 138.071 90.2382 139.215 90.3037C139.786 90.3364 140.256 90.3759 140.612 90.416C140.946 90.4537 141.233 90.4975 141.396 90.5557C141.833 90.7108 142.277 90.9274 142.659 91.1621C143.033 91.3916 143.385 91.6618 143.606 91.9365C143.713 92.0695 143.831 92.2531 143.862 92.4707C143.899 92.7332 143.802 92.988 143.582 93.1592C143.399 93.3013 143.166 93.3599 142.948 93.3857C142.719 93.4128 142.44 93.4112 142.114 93.3828C140.931 93.2797 132.234 93.1333 120.945 94.71C109.657 96.2867 95.8314 99.5796 84.3583 106.319L83.7928 105.497C94.5328 96.9073 108.514 93.0311 119.973 91.3662C125.707 90.533 130.826 90.2509 134.613 90.2139ZM135.999 30.6172L135.973 31.1396C135.616 38.4224 135.691 45.4741 135 51.8896C134.306 58.3264 132.835 64.2266 129.34 69.2764C128.997 69.7713 128.635 70.257 128.253 70.7344C128.818 70.2716 129.546 69.9465 130.392 70.1377C130.731 70.2144 131.128 70.4632 131.52 70.7588C131.931 71.0687 132.403 71.4811 132.903 71.9541C133.904 72.9012 135.046 74.119 136.097 75.3184C137.147 76.5174 138.115 77.7095 138.765 78.6064C139.086 79.0503 139.344 79.4399 139.492 79.7295C139.559 79.8617 139.633 80.0294 139.65 80.1895C139.658 80.2679 139.663 80.4292 139.557 80.5811C139.433 80.761 139.243 80.8075 139.114 80.8076H139.109C139.106 80.8077 139.101 80.8084 139.096 80.8086C139.084 80.8089 139.069 80.8089 139.051 80.8096C139.014 80.8109 138.964 80.8125 138.902 80.8154C138.778 80.8213 138.606 80.8309 138.39 80.8438C137.959 80.8694 137.349 80.91 136.586 80.9688C135.057 81.0864 132.909 81.2775 130.324 81.5723C125.152 82.162 118.23 83.1653 110.993 84.8174C103.754 86.4702 96.2161 88.7688 89.8045 91.9443C83.4851 95.0744 77.8479 99.5156 75.0995 104.494C72.3511 99.5157 66.6394 95.0744 60.3202 91.9443C53.9085 88.7687 46.3701 86.4702 39.1307 84.8174C31.8943 83.1653 24.9716 82.162 19.7997 81.5723C17.2147 81.2775 15.0673 81.0864 13.5389 80.9688C12.7751 80.91 12.1652 80.8694 11.7333 80.8438C11.5175 80.8309 11.3453 80.8213 11.2215 80.8154C11.16 80.8125 11.1099 80.8109 11.0731 80.8096C11.0552 80.8089 11.0403 80.8089 11.0292 80.8086C11.024 80.8085 11.0188 80.8077 11.0155 80.8076H11.0096C10.8807 80.8075 10.6922 80.7607 10.5672 80.5811C10.462 80.4292 10.4653 80.2679 10.4735 80.1895C10.4905 80.0293 10.5652 79.8617 10.6327 79.7295C10.7805 79.4399 11.0387 79.0503 11.3602 78.6064C12.01 77.7095 12.9769 76.5174 14.0272 75.3184C15.0778 74.119 16.2209 72.9012 17.2215 71.9541C17.7212 71.4813 18.1923 71.0686 18.6034 70.7588C18.9957 70.4631 19.3934 70.2143 19.7323 70.1377C20.9287 69.8678 21.8868 70.6272 22.4872 71.3516C22.7978 71.7265 23.0454 72.129 23.2206 72.4688C23.3864 72.7906 23.5144 73.1078 23.5448 73.3066C23.5663 73.4488 23.5289 73.5767 23.5057 73.6455C23.478 73.7274 23.4392 73.8116 23.3983 73.8896C23.316 74.0466 23.2003 74.2293 23.0721 74.4189C22.8256 74.7836 22.5009 75.2197 22.1922 75.6338L22.1493 75.6904C21.883 76.0478 21.6338 76.3844 21.4471 76.6562C24.3396 76.7715 27.0528 76.9475 29.6336 77.1758C26.0161 74.8835 23.3055 72.2354 21.2723 69.2754C17.8041 64.2257 16.3437 58.3252 15.6551 51.8887C14.9689 45.4733 15.0436 38.4227 14.6903 31.1396L14.6649 30.6172L15.1883 30.6152C27.6961 30.5892 40.8335 31.7555 51.8299 37.6904C62.4227 43.4078 70.969 53.5181 75.1004 71.0742C79.2641 53.5166 87.8788 43.4062 98.5526 37.6895C109.633 31.7553 122.87 30.5892 135.474 30.6152L135.999 30.6172ZM10.9969 84.4873C23.0205 84.2107 32.3697 85.0937 41.285 87.8896C50.1991 90.6853 58.6484 95.3846 68.8876 102.693L68.3338 103.525C41.0813 86.6414 11.2507 88.6079 9.18247 88.7373C8.89356 88.7553 8.62143 88.7395 8.39439 88.6582C8.14874 88.57 7.92395 88.3893 7.8436 88.0928C7.77355 87.8334 7.84279 87.5831 7.92173 87.4004C8.0051 87.2077 8.13251 87.0127 8.27427 86.8281C8.83422 86.0996 9.86701 85.2206 10.7088 84.5879L10.8368 84.4912L10.9969 84.4873ZM109.934 87.8896C118.85 85.0936 128.199 84.2107 140.223 84.4873L140.383 84.4912L140.511 84.5879C141.352 85.2206 142.385 86.0995 142.945 86.8281C143.087 87.0127 143.214 87.2077 143.298 87.4004C143.377 87.5831 143.446 87.8333 143.376 88.0928C143.295 88.3894 143.071 88.5701 142.825 88.6582C142.598 88.7395 142.326 88.7554 142.037 88.7373C139.969 88.6079 110.138 86.6413 82.8856 103.525L82.3319 102.693C92.571 95.3846 101.02 90.6853 109.934 87.8896ZM127.164 72.0117C125.473 73.8717 123.436 75.5824 120.985 77.1318C123.418 76.9245 125.968 76.7642 128.677 76.6562C128.49 76.3844 128.241 76.0478 127.974 75.6904L127.932 75.6338C127.624 75.2197 127.299 74.7836 127.053 74.4189C126.924 74.2292 126.808 74.0467 126.725 73.8896C126.685 73.8117 126.647 73.7273 126.619 73.6455C126.596 73.5767 126.558 73.4488 126.58 73.3066C126.61 73.1078 126.737 72.7906 126.903 72.4688C126.977 72.3252 127.065 72.1708 127.164 72.0117ZM75.0995 0C75.0995 0 95.4359 19.155 99.6991 35.1758L99.8006 35.5596L99.4383 35.7207C92.5001 38.7984 87.8224 41.927 84.2362 46.2031C80.6447 50.4856 77.675 56.2742 75.0995 64.0898C72.5239 56.2742 69.5552 50.4856 65.9637 46.2031C62.3775 41.927 57.6997 38.7984 50.7616 35.7207L50.3993 35.5596L50.5008 35.1758C54.7575 19.1798 75.0369 0.0589999 75.0995 0ZM38.1024 10.6709C44.8386 12.9049 48.5194 13.7911 55.3963 18.1543L55.7684 18.3896L55.5809 18.7891C53.4763 23.2652 52.1035 27.0143 49.5575 33.6172L49.3983 34.0303L48.9696 33.9229C44.1137 32.7009 39.7802 31.6297 36.6161 30.6426C35.0359 30.1496 33.7221 29.6698 32.7723 29.1934C32.2983 28.9555 31.8937 28.709 31.5887 28.4482C31.29 28.1928 31.037 27.8813 30.9549 27.5068L30.9276 27.3848L30.9618 27.2637C33.0809 19.767 35.3671 15.4022 37.494 10.9307L37.6834 10.5322L38.1024 10.6709ZM113.169 10.9307C115.296 15.4024 117.582 19.7668 119.701 27.2637L119.735 27.3848L119.708 27.5068C119.626 27.8814 119.373 28.1927 119.074 28.4482C118.769 28.709 118.365 28.9555 117.89 29.1934C116.941 29.6698 115.627 30.1496 114.047 30.6426C110.882 31.6297 106.549 32.7008 101.693 33.9229L101.265 34.0303L101.105 33.6172C98.5592 27.0141 97.1866 23.2653 95.0819 18.7891L94.8944 18.3896L95.2665 18.1543C102.144 13.7908 105.824 12.9049 112.56 10.6709L112.979 10.5322L113.169 10.9307Z" fill="#862F49"/>
</svg>
