<svg width="121" height="150" viewBox="0 0 121 150" fill="none" xmlns="http://www.w3.org/2000/svg">
<path d="M19.4674 120.397C19.4674 121.968 19.2716 123.399 18.88 124.691C18.4884 125.973 17.8917 127.079 17.0899 128.009C16.2974 128.938 15.2905 129.654 14.0691 130.155C12.8477 130.648 11.4026 130.894 9.7337 130.894C8.0648 130.894 6.61966 130.648 5.39829 130.155C4.17691 129.654 3.16532 128.938 2.3635 128.009C1.571 127.079 0.978964 125.969 0.587379 124.677C0.195793 123.385 0 121.949 0 120.369C0 118.26 0.344968 116.424 1.03491 114.863C1.73417 113.292 2.80636 112.075 4.2515 111.211C5.69664 110.346 7.53336 109.914 9.76167 109.914C11.9807 109.914 13.8034 110.346 15.2299 111.211C16.6657 112.075 17.7286 113.292 18.4185 114.863C19.1178 116.433 19.4674 118.278 19.4674 120.397ZM4.54519 120.397C4.54519 121.819 4.72234 123.046 5.07663 124.077C5.44024 125.1 6.00431 125.89 6.76884 126.447C7.53336 126.996 8.52165 127.27 9.7337 127.27C10.9644 127.27 11.962 126.996 12.7265 126.447C13.4911 125.89 14.0458 125.1 14.3908 124.077C14.7451 123.046 14.9222 121.819 14.9222 120.397C14.9222 118.26 14.5213 116.578 13.7195 115.351C12.9177 114.124 11.5984 113.511 9.76167 113.511C8.5403 113.511 7.54269 113.789 6.76884 114.347C6.00431 114.895 5.44024 115.685 5.07663 116.717C4.72234 117.739 4.54519 118.966 4.54519 120.397Z" fill="#FFB2BE" fill-opacity="0.8"/>
<path d="M37.8244 114.737C38.0388 114.737 38.2859 114.751 38.5656 114.779C38.8546 114.798 39.0877 114.826 39.2649 114.863L38.9432 118.85C38.8034 118.803 38.6029 118.771 38.3418 118.752C38.0901 118.724 37.871 118.71 37.6845 118.71C37.1344 118.71 36.5984 118.78 36.0762 118.92C35.5634 119.059 35.1019 119.287 34.6917 119.603C34.2815 119.909 33.9551 120.318 33.7127 120.829C33.4796 121.331 33.3631 121.949 33.3631 122.683V130.615H29.0976V115.03H32.3282L32.9575 117.651H33.1673C33.475 117.121 33.8573 116.638 34.3141 116.201C34.7803 115.755 35.307 115.402 35.8944 115.142C36.4911 114.872 37.1344 114.737 37.8244 114.737Z" fill="#FFB2BE" fill-opacity="0.8"/>
<path d="M54.1815 130.894C52.6338 130.894 51.3145 130.615 50.2237 130.058C49.1328 129.491 48.303 128.617 47.7343 127.437C47.1656 126.257 46.8812 124.747 46.8812 122.906C46.8812 121.001 47.2029 119.449 47.8462 118.25C48.4988 117.042 49.3985 116.155 50.5453 115.588C51.7014 115.021 53.0394 114.737 54.5591 114.737C55.6406 114.737 56.573 114.844 57.3561 115.058C58.1486 115.263 58.8386 115.509 59.4259 115.797L58.1673 119.087C57.496 118.817 56.8713 118.599 56.2932 118.432C55.7152 118.255 55.1371 118.167 54.5591 118.167C53.8132 118.167 53.1932 118.343 52.6991 118.696C52.2049 119.04 51.8366 119.561 51.5942 120.258C51.3518 120.955 51.2306 121.828 51.2306 122.879C51.2306 123.91 51.3611 124.765 51.6222 125.444C51.8832 126.122 52.2608 126.629 52.755 126.963C53.2491 127.288 53.8505 127.451 54.5591 127.451C55.4448 127.451 56.2326 127.335 56.9226 127.103C57.6125 126.861 58.2838 126.526 58.9365 126.099V129.737C58.2838 130.146 57.5985 130.439 56.8806 130.615C56.172 130.801 55.2723 130.894 54.1815 130.894Z" fill="#FFB2BE" fill-opacity="0.8"/>
<path d="M72.5664 108.924V113.343C72.5664 114.115 72.5385 114.849 72.4825 115.546C72.4359 116.243 72.3986 116.736 72.3706 117.024H72.5944C72.93 116.485 73.3263 116.048 73.7831 115.713C74.2493 115.379 74.7621 115.132 75.3215 114.974C75.8809 114.816 76.4823 114.737 77.1256 114.737C78.2538 114.737 79.2374 114.937 80.0765 115.337C80.9156 115.727 81.5682 116.345 82.0344 117.191C82.5006 118.027 82.7337 119.115 82.7337 120.453V130.615H78.4682V121.512C78.4682 120.397 78.2631 119.556 77.8528 118.989C77.4426 118.422 76.8086 118.139 75.9509 118.139C75.0931 118.139 74.4171 118.339 73.923 118.738C73.4289 119.129 73.0792 119.709 72.8741 120.481C72.669 121.243 72.5664 122.177 72.5664 123.283V130.615H68.3009V108.924H72.5664Z" fill="#FFB2BE" fill-opacity="0.8"/>
<path d="M97.1189 115.03V130.615H92.8534V115.03H97.1189ZM94.9931 108.924C95.6271 108.924 96.1725 109.073 96.6294 109.37C97.0862 109.658 97.3147 110.202 97.3147 111.001C97.3147 111.791 97.0862 112.34 96.6294 112.646C96.1725 112.944 95.6271 113.092 94.9931 113.092C94.3498 113.092 93.7997 112.944 93.3429 112.646C92.8953 112.34 92.6716 111.791 92.6716 111.001C92.6716 110.202 92.8953 109.658 93.3429 109.37C93.7997 109.073 94.3498 108.924 94.9931 108.924Z" fill="#FFB2BE" fill-opacity="0.8"/>
<path d="M112.287 130.894C110.544 130.894 109.122 130.216 108.022 128.859C106.931 127.493 106.385 125.49 106.385 122.851C106.385 120.183 106.94 118.167 108.05 116.801C109.159 115.425 110.609 114.737 112.399 114.737C113.145 114.737 113.802 114.84 114.371 115.044C114.94 115.249 115.429 115.523 115.839 115.867C116.259 116.21 116.613 116.596 116.902 117.024H117.042C116.986 116.726 116.916 116.289 116.832 115.713C116.758 115.128 116.721 114.528 116.721 113.915V108.924H121V130.615H117.727L116.902 128.594H116.721C116.45 129.022 116.11 129.412 115.7 129.765C115.299 130.109 114.819 130.383 114.259 130.588C113.7 130.792 113.042 130.894 112.287 130.894ZM113.784 127.507C114.949 127.507 115.77 127.163 116.245 126.475C116.73 125.778 116.986 124.733 117.014 123.339V122.879C117.014 121.364 116.781 120.207 116.315 119.407C115.849 118.599 114.982 118.195 113.714 118.195C112.772 118.195 112.035 118.599 111.504 119.407C110.973 120.216 110.707 121.382 110.707 122.906C110.707 124.431 110.973 125.578 111.504 126.35C112.045 127.121 112.805 127.507 113.784 127.507Z" fill="#FFB2BE" fill-opacity="0.8"/>
<path d="M16.5418 146.45C16.5418 146.806 16.4521 147.104 16.2726 147.345C16.0931 147.583 15.8497 147.764 15.5425 147.886C15.2352 148.005 14.8871 148.065 14.4982 148.065C14.2562 148.065 14.0359 148.052 13.8374 148.028C13.6416 148.006 13.4635 147.977 13.3031 147.939C13.1454 147.901 13.0012 147.857 12.8707 147.808V147.39C13.0828 147.471 13.3276 147.543 13.6049 147.605C13.885 147.665 14.1896 147.695 14.5186 147.695C14.8286 147.695 15.1033 147.65 15.3426 147.56C15.5846 147.471 15.775 147.335 15.9136 147.154C16.0523 146.972 16.1217 146.743 16.1217 146.467C16.1217 146.223 16.0632 146.024 15.9463 145.869C15.8321 145.712 15.6594 145.578 15.4282 145.466C15.1971 145.353 14.9061 145.237 14.5553 145.121C14.3106 145.037 14.0876 144.949 13.8864 144.857C13.6879 144.762 13.5179 144.653 13.3765 144.531C13.2351 144.407 13.1263 144.258 13.0502 144.084C12.9768 143.908 12.94 143.701 12.94 143.462C12.94 143.134 13.023 142.859 13.1889 142.637C13.3575 142.412 13.5845 142.242 13.8701 142.128C14.1583 142.012 14.4819 141.954 14.8409 141.954C15.1264 141.954 15.397 141.981 15.6526 142.035C15.9109 142.086 16.1597 142.165 16.3991 142.271L16.2522 142.633C16.0129 142.53 15.7736 142.454 15.5343 142.405C15.295 142.356 15.0584 142.332 14.8246 142.332C14.5445 142.332 14.2943 142.374 14.074 142.458C13.8565 142.539 13.6838 142.662 13.556 142.828C13.4282 142.993 13.3643 143.202 13.3643 143.454C13.3643 143.714 13.4227 143.924 13.5397 144.084C13.6593 144.244 13.8279 144.377 14.0455 144.483C14.2657 144.588 14.5254 144.691 14.8246 144.792C15.1781 144.911 15.4826 145.037 15.7383 145.17C15.9939 145.3 16.191 145.465 16.3297 145.666C16.4711 145.866 16.5418 146.128 16.5418 146.45Z" fill="#DED1D3"/>
<path d="M19.0708 143.564H19.5073L20.5841 146.369C20.6494 146.534 20.7065 146.688 20.7554 146.829C20.8071 146.967 20.852 147.094 20.8901 147.211C20.9281 147.325 20.9594 147.429 20.9839 147.524H21.0083C21.0491 147.399 21.1035 147.239 21.1715 147.044C21.2395 146.846 21.317 146.627 21.404 146.385L22.4686 143.564H22.9092L20.886 148.813C20.7881 149.068 20.6807 149.283 20.5637 149.459C20.4468 149.638 20.3095 149.772 20.1517 149.862C19.994 149.954 19.8037 150 19.5807 150C19.4801 150 19.389 149.992 19.3074 149.976C19.2258 149.962 19.147 149.943 19.0708 149.919V149.565C19.1415 149.587 19.2136 149.604 19.287 149.618C19.3631 149.634 19.4461 149.642 19.5358 149.642C19.6908 149.642 19.8241 149.61 19.9356 149.545C20.0498 149.482 20.1517 149.385 20.2415 149.252C20.3312 149.119 20.4155 148.95 20.4944 148.744L20.7962 147.959L19.0708 143.564Z" fill="#DED1D3"/>
<path d="M27.6775 143.478C28.1752 143.478 28.5572 143.608 28.8237 143.869C29.0902 144.129 29.2235 144.537 29.2235 145.092V147.983H28.8156V145.117C28.8156 144.678 28.715 144.355 28.5137 144.149C28.3125 143.943 28.0202 143.84 27.6367 143.84C27.15 143.84 26.7774 143.982 26.5191 144.267C26.2635 144.549 26.1357 144.976 26.1357 145.548V147.983H25.7237V143.564H26.0582L26.1194 144.369H26.1438C26.2227 144.203 26.3301 144.054 26.4661 143.921C26.6048 143.786 26.7747 143.679 26.9759 143.6C27.1772 143.519 27.411 143.478 27.6775 143.478Z" fill="#DED1D3"/>
<path d="M34.5262 148.065C34.0857 148.065 33.7131 147.974 33.4086 147.792C33.1067 147.608 32.8783 147.346 32.7233 147.007C32.571 146.666 32.4949 146.262 32.4949 145.796C32.4949 145.311 32.5832 144.896 32.76 144.552C32.9368 144.205 33.1856 143.939 33.5065 143.755C33.8273 143.57 34.204 143.478 34.6363 143.478C34.8485 143.478 35.0456 143.497 35.2278 143.535C35.41 143.573 35.5745 143.626 35.7214 143.694L35.6112 144.056C35.4589 143.988 35.2971 143.936 35.1258 143.901C34.9545 143.866 34.79 143.848 34.6323 143.848C34.2679 143.848 33.9579 143.928 33.7022 144.088C33.4493 144.245 33.2549 144.47 33.1189 144.763C32.9857 145.053 32.9191 145.396 32.9191 145.792C32.9191 146.163 32.9762 146.492 33.0904 146.78C33.2046 147.064 33.38 147.289 33.6166 147.455C33.8532 147.617 34.1564 147.699 34.5262 147.699C34.741 147.699 34.945 147.677 35.1381 147.634C35.3339 147.59 35.512 147.535 35.6724 147.467V147.841C35.5283 147.906 35.361 147.959 35.1707 148C34.9831 148.043 34.7682 148.065 34.5262 148.065Z" fill="#DED1D3"/>
<path d="M43.4756 141.657V143.454C43.4756 143.608 43.4729 143.778 43.4674 143.962C43.462 144.146 43.4565 144.3 43.4511 144.422H43.4756C43.5816 144.148 43.7665 143.921 44.0303 143.743C44.2941 143.564 44.6231 143.474 45.0174 143.474C45.5939 143.474 46.0386 143.668 46.3513 144.056C46.6667 144.443 46.8244 145.011 46.8244 145.759C46.8244 146.217 46.7537 146.62 46.6123 146.967C46.4709 147.311 46.2602 147.581 45.9801 147.776C45.7027 147.968 45.3546 148.065 44.9359 148.065C44.5579 148.065 44.2492 147.986 44.0099 147.829C43.7706 147.669 43.5966 147.47 43.4878 147.231H43.4552L43.3777 147.983H43.0636V141.657H43.4756ZM44.9726 143.832C44.6218 143.832 44.3362 143.908 44.116 144.06C43.8957 144.209 43.7339 144.427 43.6306 144.714C43.5272 145.002 43.4756 145.353 43.4756 145.767V145.832C43.4756 146.442 43.5871 146.907 43.8101 147.227C44.033 147.547 44.3947 147.707 44.8951 147.707C45.39 147.707 45.7639 147.539 46.0168 147.203C46.2724 146.864 46.4002 146.383 46.4002 145.759C46.4002 145.122 46.2819 144.642 46.0454 144.32C45.8088 143.995 45.4512 143.832 44.9726 143.832Z" fill="#DED1D3"/>
<path d="M53.8118 145.767C53.8118 146.109 53.7697 146.421 53.6854 146.703C53.6011 146.982 53.476 147.223 53.3101 147.426C53.1442 147.63 52.9375 147.787 52.6901 147.898C52.4453 148.009 52.1598 148.065 51.8335 148.065C51.5235 148.065 51.2475 148.01 51.0054 147.902C50.7634 147.791 50.5581 147.634 50.3895 147.43C50.2236 147.227 50.0972 146.986 50.0102 146.707C49.9231 146.425 49.8796 146.112 49.8796 145.767C49.8796 145.293 49.9585 144.885 50.1162 144.544C50.2767 144.199 50.5051 143.936 50.8015 143.755C51.1006 143.57 51.4582 143.478 51.8743 143.478C52.3039 143.478 52.6615 143.576 52.9471 143.771C53.2353 143.963 53.4515 144.232 53.5956 144.576C53.7397 144.92 53.8118 145.317 53.8118 145.767ZM50.3039 145.767C50.3039 146.155 50.3596 146.494 50.4711 146.784C50.5826 147.074 50.7512 147.3 50.9769 147.463C51.2053 147.625 51.4936 147.707 51.8416 147.707C52.1979 147.707 52.4902 147.625 52.7186 147.463C52.9471 147.3 53.1157 147.073 53.2244 146.78C53.3332 146.487 53.3876 146.15 53.3876 145.767C53.3876 145.396 53.3359 145.065 53.2326 144.775C53.1293 144.485 52.9661 144.258 52.7431 144.092C52.5201 143.924 52.2291 143.84 51.8702 143.84C51.3562 143.84 50.966 144.011 50.6995 144.352C50.4357 144.694 50.3039 145.166 50.3039 145.767Z" fill="#DED1D3"/>
<path d="M60.8032 145.767C60.8032 146.109 60.7611 146.421 60.6768 146.703C60.5925 146.982 60.4674 147.223 60.3015 147.426C60.1356 147.63 59.929 147.787 59.6815 147.898C59.4368 148.009 59.1512 148.065 58.8249 148.065C58.5149 148.065 58.2389 148.01 57.9969 147.902C57.7549 147.791 57.5495 147.634 57.3809 147.43C57.2151 147.227 57.0886 146.986 57.0016 146.707C56.9146 146.425 56.8711 146.112 56.8711 145.767C56.8711 145.293 56.9499 144.885 57.1077 144.544C57.2681 144.199 57.4965 143.936 57.7929 143.755C58.0921 143.57 58.4497 143.478 58.8657 143.478C59.2954 143.478 59.653 143.576 59.9385 143.771C60.2267 143.963 60.4429 144.232 60.5871 144.576C60.7312 144.92 60.8032 145.317 60.8032 145.767ZM57.2953 145.767C57.2953 146.155 57.351 146.494 57.4625 146.784C57.574 147.074 57.7426 147.3 57.9683 147.463C58.1968 147.625 58.485 147.707 58.8331 147.707C59.1893 147.707 59.4816 147.625 59.7101 147.463C59.9385 147.3 60.1071 147.073 60.2159 146.78C60.3246 146.487 60.379 146.15 60.379 145.767C60.379 145.396 60.3274 145.065 60.224 144.775C60.1207 144.485 59.9575 144.258 59.7345 144.092C59.5116 143.924 59.2206 143.84 58.8616 143.84C58.3477 143.84 57.9574 144.011 57.691 144.352C57.4272 144.694 57.2953 145.166 57.2953 145.767Z" fill="#DED1D3"/>
<path d="M64.5274 141.657V144.848C64.5274 145.046 64.5247 145.248 64.5192 145.454C64.5165 145.658 64.5124 145.861 64.507 146.064H64.5152C64.594 145.972 64.6756 145.876 64.7599 145.775C64.8469 145.672 64.9326 145.574 65.0169 145.479L66.7708 143.564H67.2685L65.5186 145.458L67.4235 147.983H66.9299L65.2371 145.731L64.5274 146.475V147.983H64.1154V141.657H64.5274Z" fill="#DED1D3"/>
<path d="M76.275 143.486C76.3919 143.486 76.502 143.493 76.6054 143.507C76.7087 143.52 76.8052 143.539 76.895 143.564L76.8297 143.942C76.74 143.917 76.6489 143.9 76.5564 143.889C76.464 143.875 76.3647 143.869 76.2586 143.869C76.0493 143.869 75.8616 143.908 75.6957 143.986C75.5326 144.065 75.3939 144.178 75.2797 144.324C75.1655 144.47 75.0784 144.647 75.0186 144.853C74.9588 145.059 74.9289 145.289 74.9289 145.544V147.983H74.5128V143.564H74.8677L74.9085 144.397H74.933C75.0009 144.226 75.0961 144.073 75.2185 143.938C75.3436 143.799 75.4945 143.69 75.6713 143.608C75.848 143.527 76.0493 143.486 76.275 143.486Z" fill="#DED1D3"/>
<path d="M81.5328 143.478C81.9108 143.478 82.2249 143.566 82.4751 143.743C82.728 143.919 82.9156 144.16 83.038 144.466C83.1631 144.773 83.2256 145.124 83.2256 145.519V145.816H80.0236C80.0236 146.423 80.1636 146.89 80.4437 147.215C80.7265 147.54 81.1304 147.703 81.6552 147.703C81.9298 147.703 82.1678 147.681 82.369 147.638C82.573 147.592 82.7987 147.514 83.0461 147.406V147.784C82.8286 147.882 82.611 147.952 82.3935 147.995C82.1759 148.042 81.9258 148.065 81.6429 148.065C81.1943 148.065 80.8176 147.972 80.5131 147.788C80.2112 147.601 79.9828 147.338 79.8278 146.999C79.6755 146.661 79.5994 146.265 79.5994 145.812C79.5994 145.37 79.6728 144.973 79.8196 144.621C79.9692 144.268 80.1867 143.991 80.4723 143.787C80.7605 143.581 81.114 143.478 81.5328 143.478ZM81.5287 143.832C81.1045 143.832 80.7605 143.973 80.4967 144.255C80.2357 144.534 80.082 144.938 80.0358 145.466H82.7973C82.7973 145.144 82.7511 144.859 82.6586 144.613C82.5662 144.366 82.4261 144.175 82.2385 144.039C82.0536 143.901 81.817 143.832 81.5287 143.832Z" fill="#DED1D3"/>
<path d="M88.0837 143.486C88.5705 143.486 88.9349 143.608 89.1769 143.852C89.4189 144.096 89.5399 144.485 89.5399 145.019V147.983H89.2218L89.1483 147.211H89.1239C89.0287 147.376 88.9131 147.524 88.7772 147.654C88.6412 147.781 88.4739 147.882 88.2754 147.955C88.0796 148.028 87.8403 148.065 87.5575 148.065C87.272 148.065 87.0273 148.017 86.8233 147.922C86.6221 147.827 86.4657 147.689 86.3542 147.508C86.2454 147.326 86.1911 147.105 86.1911 146.845C86.1911 146.406 86.3733 146.072 86.7376 145.845C87.102 145.614 87.6255 145.484 88.3081 145.454L89.132 145.414V145.092C89.132 144.64 89.0423 144.317 88.8628 144.125C88.6833 143.932 88.4182 143.836 88.0674 143.836C87.839 143.836 87.6187 143.866 87.4066 143.925C87.1972 143.982 86.9837 144.065 86.7662 144.174L86.6357 143.832C86.8478 143.732 87.0748 143.649 87.3169 143.584C87.5616 143.519 87.8172 143.486 88.0837 143.486ZM89.1279 145.735L88.3529 145.767C87.79 145.794 87.3617 145.895 87.068 146.068C86.7744 146.242 86.6275 146.502 86.6275 146.849C86.6275 147.128 86.7145 147.342 86.8886 147.491C87.0653 147.64 87.3101 147.715 87.6228 147.715C88.1096 147.715 88.4807 147.577 88.7364 147.3C88.9947 147.024 89.1252 146.647 89.1279 146.17V145.735Z" fill="#DED1D3"/>
<path d="M94.6591 148.065C94.0527 148.065 93.5904 147.875 93.2722 147.495C92.9568 147.113 92.7991 146.558 92.7991 145.828C92.7991 145.064 92.9663 144.481 93.3008 144.08C93.6353 143.679 94.1016 143.478 94.6999 143.478C94.9555 143.478 95.1771 143.518 95.3648 143.596C95.5551 143.675 95.7142 143.782 95.842 143.917C95.9725 144.05 96.0732 144.202 96.1439 144.373H96.1765C96.1656 144.229 96.1575 144.075 96.152 143.909C96.1466 143.744 96.1439 143.592 96.1439 143.454V141.657H96.5558V147.983H96.2214L96.1683 147.174H96.1439C96.0704 147.337 95.9685 147.486 95.8379 147.621C95.7101 147.757 95.5497 147.865 95.3566 147.947C95.1635 148.025 94.931 148.065 94.6591 148.065ZM94.704 147.707C95.2261 147.707 95.5973 147.546 95.8175 147.223C96.0378 146.898 96.1479 146.434 96.1479 145.832V145.767C96.1479 145.144 96.0378 144.667 95.8175 144.336C95.5973 144.003 95.2383 143.836 94.7407 143.836C94.2485 143.836 93.8718 144.007 93.6108 144.348C93.3525 144.69 93.2233 145.186 93.2233 145.836C93.2233 146.449 93.3443 146.914 93.5863 147.231C93.8311 147.548 94.2036 147.707 94.704 147.707Z" fill="#DED1D3"/>
<path d="M101.797 143.478C102.175 143.478 102.489 143.566 102.74 143.743C102.993 143.919 103.18 144.16 103.303 144.466C103.428 144.773 103.49 145.124 103.49 145.519V145.816H100.288C100.288 146.423 100.428 146.89 100.708 147.215C100.991 147.54 101.395 147.703 101.92 147.703C102.194 147.703 102.432 147.681 102.634 147.638C102.838 147.592 103.063 147.514 103.311 147.406V147.784C103.093 147.882 102.876 147.952 102.658 147.995C102.441 148.042 102.19 148.065 101.908 148.065C101.459 148.065 101.082 147.972 100.778 147.788C100.476 147.601 100.247 147.338 100.092 146.999C99.9401 146.661 99.8639 146.265 99.8639 145.812C99.8639 145.37 99.9373 144.973 100.084 144.621C100.234 144.268 100.451 143.991 100.737 143.787C101.025 143.581 101.379 143.478 101.797 143.478ZM101.793 143.832C101.369 143.832 101.025 143.973 100.761 144.255C100.5 144.534 100.347 144.938 100.3 145.466H103.062C103.062 145.144 103.016 144.859 102.923 144.613C102.831 144.366 102.691 144.175 102.503 144.039C102.318 143.901 102.082 143.832 101.793 143.832Z" fill="#DED1D3"/>
<path d="M108.564 143.486C108.681 143.486 108.792 143.493 108.895 143.507C108.998 143.52 109.095 143.539 109.184 143.564L109.119 143.942C109.029 143.917 108.938 143.9 108.846 143.889C108.753 143.875 108.654 143.869 108.548 143.869C108.339 143.869 108.151 143.908 107.985 143.986C107.822 144.065 107.683 144.178 107.569 144.324C107.455 144.47 107.368 144.647 107.308 144.853C107.248 145.059 107.218 145.289 107.218 145.544V147.983H106.802V143.564H107.157L107.198 144.397H107.222C107.29 144.226 107.386 144.073 107.508 143.938C107.633 143.799 107.784 143.69 107.961 143.608C108.138 143.527 108.339 143.486 108.564 143.486Z" fill="#DED1D3"/>
<path d="M114.759 79.644C115.552 79.6318 116.239 79.6465 116.795 79.6942C117.34 79.7409 117.797 79.8219 118.109 79.9583C119.167 80.4226 119.847 81.0128 120.213 81.6695C120.582 82.3311 120.612 83.0235 120.438 83.64C120.266 84.2499 119.896 84.7882 119.458 85.1744C119.025 85.5555 118.485 85.8223 117.958 85.8196C117.135 85.8151 109.658 85.5494 100.361 86.3361C91.0722 87.122 80.0213 88.9554 71.996 93.1173C70.036 95.1469 68.4635 96.7256 66.7712 97.8852C65.1142 99.0205 61.3195 100.18 60.9496 100.18C60.5801 100.18 56.626 99.0204 54.969 97.8852C53.2768 96.7257 51.7041 95.1468 49.7442 93.1173C41.7189 88.9555 30.668 87.122 21.3789 86.3361C12.0821 85.5494 4.60573 85.8151 3.78249 85.8196C3.25506 85.8224 2.71483 85.5555 2.28211 85.1744C1.84381 84.7882 1.47407 84.2498 1.30221 83.64C1.12865 83.0235 1.15858 82.3311 1.52737 81.6695C1.89363 81.0127 2.57325 80.4226 3.63168 79.9583C3.94278 79.8219 4.39969 79.7409 4.94512 79.6942C5.50129 79.6465 6.1879 79.6318 6.9809 79.644C8.5679 79.6684 10.6076 79.8034 12.937 80.0246C17.5971 80.467 23.442 81.2544 29.2025 82.1904C34.9627 83.1265 40.6468 84.213 44.9834 85.255C47.15 85.7756 48.9896 86.2867 50.3367 86.7654C51.0091 87.0044 51.5704 87.2392 51.9914 87.4675C52.2017 87.5817 52.3857 87.6993 52.5335 87.82C52.6777 87.9378 52.8101 88.0765 52.8878 88.2401C53.5622 89.6596 55.1987 91.2344 56.9197 92.4872C57.773 93.1084 58.6322 93.6395 59.3776 94.023C59.9986 94.3424 60.5924 94.5749 60.9496 94.6552C61.3067 94.5749 61.7417 94.3424 62.3626 94.023C63.1081 93.6394 63.9671 93.1084 64.8205 92.4872C66.5415 91.2343 68.1783 89.6597 68.8526 88.2401C68.9304 88.0765 69.0627 87.9378 69.2069 87.82C69.3548 87.6993 69.5385 87.5817 69.7488 87.4675C70.1698 87.2392 70.731 87.0044 71.4035 86.7654C72.7506 86.2867 74.5903 85.7756 76.7571 85.255C81.0936 84.213 86.7775 83.1265 92.5377 82.1904C98.2983 81.2543 104.143 80.467 108.803 80.0246C111.133 79.8034 113.172 79.6684 114.759 79.644Z" fill="#FFB2BE" fill-opacity="0.8"/>
<path d="M7.60674 75.7972C8.45357 75.7445 9.66251 75.75 11.1492 75.8181C14.1236 75.9543 18.2215 76.3421 22.7847 77.0244C31.9077 78.3884 42.9086 80.932 50.512 85.005C50.5162 85.0073 50.5207 85.0097 50.525 85.012C50.9567 85.2371 51.3709 85.4695 51.7657 85.7092C51.768 85.7106 51.7704 85.712 51.7727 85.7134C51.7732 85.7137 51.7736 85.714 51.7741 85.7143L51.6513 85.9181C51.6508 85.9178 51.6503 85.9174 51.6499 85.9171C51.6471 85.9155 51.644 85.914 51.6413 85.9123C51.2406 85.6761 50.8284 85.4445 50.4054 85.2178C50.4038 85.2169 50.402 85.2161 50.4003 85.2153C43.7341 81.7441 32.7663 79.9571 23.2809 79.0552C18.5415 78.6046 14.1776 78.3755 10.9149 78.2667C7.64823 78.1577 5.49367 78.1697 5.16679 78.1998C4.98904 78.2161 4.8408 78.2034 4.74047 78.1387C4.68597 78.1035 4.64715 78.0538 4.62882 77.993C4.61134 77.9349 4.61495 77.8751 4.62766 77.8206C4.65257 77.714 4.7192 77.5981 4.80014 77.4856C4.88288 77.3705 4.9886 77.248 5.10316 77.1268C5.33242 76.8844 5.60454 76.6391 5.81803 76.4554C5.92498 76.3633 6.01787 76.2862 6.08398 76.2321C6.11697 76.2051 6.14341 76.1837 6.1616 76.1691C6.16239 76.1685 6.16318 76.1677 6.16393 76.167C6.1949 76.1009 6.25566 76.0552 6.31334 76.0239C6.38911 75.9828 6.48971 75.9491 6.6082 75.921C6.84654 75.8644 7.18419 75.8234 7.60674 75.7972Z" fill="#FFB2BE" fill-opacity="0.8"/>
<path d="M111.069 75.8181C112.556 75.75 113.765 75.7445 114.612 75.7972C115.034 75.8234 115.372 75.8644 115.61 75.921C115.729 75.9491 115.829 75.9828 115.905 76.0239C115.963 76.0552 116.024 76.1009 116.055 76.167C116.055 76.1677 116.056 76.1685 116.057 76.1691C116.075 76.1837 116.102 76.2051 116.135 76.2321C116.201 76.2862 116.293 76.3633 116.4 76.4554C116.614 76.6391 116.886 76.8844 117.115 77.1268C117.23 77.248 117.336 77.3705 117.418 77.4856C117.499 77.5981 117.566 77.714 117.591 77.8206C117.604 77.8751 117.607 77.9349 117.59 77.993C117.571 78.0538 117.533 78.1035 117.478 78.1387C117.378 78.2034 117.229 78.2161 117.052 78.1998C116.725 78.1697 114.57 78.1577 111.304 78.2667C108.041 78.3755 103.677 78.6046 98.9376 79.0552C89.4521 79.9571 78.4844 81.744 71.8182 85.2153C71.8165 85.2161 71.8147 85.2169 71.8131 85.2178C71.3901 85.4445 70.9779 85.6761 70.5772 85.9123C70.5744 85.914 70.5714 85.9154 70.5686 85.9171C70.5681 85.9174 70.5677 85.9178 70.5672 85.9181L70.4444 85.7143C70.4449 85.714 70.4455 85.7137 70.446 85.7134C70.4483 85.712 70.4504 85.7106 70.4528 85.7092C70.8476 85.4695 71.2618 85.2371 71.6935 85.012C71.6978 85.0097 71.7022 85.0073 71.7065 85.005C79.3099 80.9319 90.3107 78.3884 99.4338 77.0244C103.997 76.3421 108.095 75.9543 111.069 75.8181Z" fill="#FFB2BE" fill-opacity="0.8"/>
<path d="M13.0034 71.8225C16.006 71.8518 20.0653 72.074 24.6141 72.7328C33.7091 74.0501 44.7758 77.1143 53.2647 83.8821L53.1297 84.0775C43.9564 78.7059 32.9157 76.0882 23.9184 74.8355C14.9214 73.5829 7.9805 73.6969 7.01377 73.7809C6.76508 73.8025 6.56434 73.8031 6.40751 73.7846C6.25356 73.7665 6.12777 73.7284 6.04133 73.6615C5.94604 73.5876 5.90732 73.4847 5.92315 73.3736C5.93753 73.2732 5.99499 73.1747 6.06767 73.0848C6.21474 72.9029 6.46363 72.7085 6.75015 72.533C7.03869 72.3563 7.37433 72.1932 7.70231 72.0769C7.79738 72.0433 7.99266 72.0108 8.26404 71.9803C8.54075 71.9492 8.90971 71.9189 9.36118 71.8932C10.2644 71.8416 11.5022 71.8079 13.0034 71.8225Z" fill="#FFB2BE" fill-opacity="0.8"/>
<path d="M108.301 71.8225C109.802 71.8079 111.04 71.8416 111.943 71.8932C112.394 71.9189 112.763 71.9492 113.04 71.9803C113.311 72.0108 113.507 72.0433 113.602 72.0769C113.93 72.1932 114.265 72.3563 114.554 72.533C114.84 72.7085 115.089 72.9029 115.236 73.0848C115.309 73.1747 115.367 73.2732 115.381 73.3736C115.397 73.4847 115.358 73.5876 115.263 73.6615C115.176 73.7285 115.051 73.7665 114.897 73.7846C114.74 73.8031 114.539 73.8025 114.29 73.7809C113.324 73.6969 106.383 73.5828 97.3857 74.8355C88.3884 76.0882 77.3477 78.7059 68.1743 84.0775L68.0394 83.8821C76.5283 77.1143 87.5949 74.0501 96.6899 72.7328C101.239 72.074 105.298 71.8518 108.301 71.8225Z" fill="#FFB2BE" fill-opacity="0.8"/>
<path d="M109.109 24.5578L109.103 24.6821C108.819 30.4825 108.88 36.0424 108.33 41.1212C107.78 46.2052 106.618 50.8318 103.875 54.7821C102.193 57.2033 99.9217 59.3653 96.8424 61.223C98.9614 61.0324 101.192 60.8867 103.576 60.792C103.427 60.5765 103.229 60.31 103.017 60.0267L102.983 59.9816C102.738 59.6531 102.479 59.3073 102.283 59.0181C102.181 58.8676 102.089 58.7226 102.023 58.598C101.991 58.5362 101.96 58.4694 101.938 58.4045C101.92 58.3499 101.89 58.249 101.907 58.1364C101.931 57.9787 102.033 57.727 102.165 57.4716C102.304 57.2021 102.501 56.8828 102.749 56.5853C103.226 56.0107 103.988 55.4087 104.94 55.6229C105.21 55.6836 105.526 55.8812 105.838 56.1157C106.165 56.3615 106.54 56.6886 106.938 57.0637C107.734 57.8147 108.643 58.78 109.479 59.7311C110.315 60.6821 111.084 61.6273 111.601 62.3387C111.857 62.6908 112.063 63.0002 112.18 63.2299C112.234 63.3349 112.293 63.4677 112.307 63.5947C112.313 63.6569 112.316 63.7843 112.232 63.9046C112.133 64.0473 111.983 64.0844 111.88 64.0845H111.876C111.873 64.0845 111.869 64.0853 111.865 64.0854C111.856 64.0856 111.844 64.0856 111.829 64.0861C111.8 64.0872 111.76 64.0887 111.711 64.091C111.612 64.0956 111.476 64.1031 111.304 64.1133C110.96 64.1336 110.476 64.1661 109.868 64.2127C108.652 64.306 106.943 64.4571 104.886 64.6909C100.771 65.1586 95.2641 65.9545 89.5067 67.2647C83.747 68.5755 77.7496 70.3984 72.6484 72.9168C67.6207 75.3991 63.1362 78.9211 60.9496 82.8693C58.7629 78.9211 54.2183 75.3991 49.1906 72.9168C44.0895 70.3984 38.0922 68.5755 32.3326 67.2647C26.5753 65.9545 21.0678 65.1586 16.9531 64.6909C14.8962 64.4571 13.1874 64.306 11.9713 64.2127C11.3637 64.1661 10.8789 64.1336 10.5352 64.1133C10.3635 64.1031 10.2268 64.0956 10.1283 64.091C10.0792 64.0887 10.0392 64.0872 10.0099 64.0861C9.99544 64.0856 9.98335 64.0856 9.97444 64.0854C9.97021 64.0853 9.96636 64.0846 9.96371 64.0845H9.95928C9.85668 64.0844 9.70647 64.0473 9.60709 63.9046C9.52345 63.7843 9.5262 63.6569 9.53274 63.5947C9.54625 63.4676 9.60537 63.3349 9.65907 63.2299C9.77669 63.0002 9.98188 62.6909 10.2378 62.3387C10.7548 61.6273 11.5246 60.6821 12.3603 59.7311C13.1962 58.78 14.1051 57.8147 14.9012 57.0637C15.2988 56.6885 15.674 56.3615 16.0011 56.1157C16.3133 55.8812 16.6294 55.6836 16.899 55.6229C17.8509 55.4088 18.613 56.0108 19.0907 56.5853C19.3379 56.8827 19.535 57.2021 19.6743 57.4716C19.8063 57.727 19.908 57.9787 19.9321 58.1364C19.9492 58.249 19.9193 58.3499 19.9009 58.4045C19.8789 58.4695 19.8484 58.5361 19.8158 58.598C19.7503 58.7226 19.6582 58.8676 19.5562 59.0181C19.36 59.3073 19.1015 59.6531 18.856 59.9816L18.8222 60.0267C18.6103 60.3101 18.412 60.5764 18.2635 60.792C20.796 60.8926 23.1558 61.0512 25.3927 61.2597C22.3061 59.3938 20.0333 57.2191 18.3539 54.7818C15.632 50.8316 14.4783 46.205 13.9327 41.1212C13.3877 36.0425 13.4481 30.4826 13.1659 24.6821L13.1598 24.5578L13.2847 24.5573C23.2264 24.5367 33.6192 25.4622 42.304 30.1346C50.8895 34.7536 57.791 43.0262 60.95 57.6203C64.1336 43.0257 71.0888 34.7532 79.7406 30.1344C88.4924 25.4622 98.9655 24.5367 108.984 24.5573L109.109 24.5578Z" fill="#FFB2BE" fill-opacity="0.8"/>
<path d="M9.95625 67.2805C19.5055 67.0616 26.9099 67.7611 33.9635 69.9661C41.0168 72.1711 47.7117 75.8793 55.8457 81.6667L55.7135 81.8647C33.953 68.4263 10.1441 69.9932 8.48851 70.0965C8.27428 70.1098 8.10216 70.0956 7.97315 70.0495C7.83968 70.0019 7.7436 69.9161 7.7093 69.7898C7.67744 69.6723 7.7063 69.5443 7.75895 69.4229C7.81264 69.2992 7.89843 69.1658 8.00415 69.0287C8.42536 68.4822 9.22101 67.8038 9.88749 67.3045L9.91803 67.2815L9.95625 67.2805Z" fill="#FFB2BE" fill-opacity="0.8"/>
<path d="M88.7475 69.9661C95.8011 67.7611 103.205 67.0616 112.755 67.2805L112.793 67.2815L112.824 67.3045C113.49 67.8037 114.286 68.4822 114.707 69.0287C114.813 69.1658 114.898 69.2993 114.952 69.4229C115.005 69.5443 115.034 69.6723 115.002 69.7898C114.967 69.9161 114.871 70.0019 114.738 70.0495C114.609 70.0956 114.437 70.1098 114.222 70.0965C112.566 69.9932 88.7575 68.4265 66.9975 81.8647L66.8653 81.6667C74.9993 75.8792 81.6942 72.1711 88.7475 69.9661Z" fill="#FFB2BE" fill-opacity="0.8"/>
<path d="M60.9496 0C60.9496 0 77.1287 15.1912 80.5205 27.8965L80.6014 28.2006L80.3135 28.3279C74.7932 30.7688 71.0714 33.2502 68.2182 36.6415C65.3608 40.0378 62.9987 44.6283 60.9496 50.8265C58.9005 44.6283 56.5384 40.0378 53.681 36.6415C50.8277 33.2502 47.1061 30.7687 41.5859 28.3279L41.2978 28.2006L41.3787 27.8965C44.7683 15.1991 60.9295 0.0188295 60.9496 0Z" fill="#FFB2BE" fill-opacity="0.8"/>
<path d="M31.4275 8.72596C36.7935 10.4998 39.6878 11.1924 45.1253 14.6313L45.2141 14.6876L45.1694 14.7823C43.4894 18.3438 42.3929 21.3292 40.3692 26.5605L40.3312 26.6588L40.2289 26.633C36.3608 25.6628 32.9235 24.8161 30.4154 24.0362C29.1619 23.6464 28.1345 23.2712 27.3995 22.9038C27.0322 22.7201 26.7328 22.5361 26.514 22.3496C26.2967 22.1645 26.1472 21.9671 26.1005 21.7551L26.094 21.726L26.1022 21.6972C27.7807 15.7781 29.5881 12.3381 31.2823 8.78776L31.3275 8.69297L31.4275 8.72596Z" fill="#FFB2BE" fill-opacity="0.8"/>
<path d="M90.9863 8.78776C92.6805 12.3381 94.4879 15.7781 96.1664 21.6972L96.1746 21.726L96.1681 21.7551C96.1214 21.9671 95.9718 22.1645 95.7546 22.3496C95.5358 22.536 95.2364 22.7201 94.8691 22.9038C94.1341 23.2712 93.1067 23.6464 91.8532 24.0362C89.3451 24.8161 85.9077 25.6628 82.0397 26.633L81.9374 26.6588L81.8994 26.5605C79.8757 21.3292 78.7792 18.3438 77.0992 14.7823L77.0545 14.6876L77.1433 14.6313C82.5807 11.1925 85.4751 10.4998 90.8411 8.72596L90.9411 8.69297L90.9863 8.78776Z" fill="#FFB2BE" fill-opacity="0.8"/>
</svg>
