<svg width="167" height="200" viewBox="0 0 167 200" fill="none" xmlns="http://www.w3.org/2000/svg">
<path d="M28.2784 160.53C28.2784 162.624 28.0182 164.532 27.4978 166.255C26.9773 167.965 26.1843 169.439 25.1186 170.678C24.0654 171.917 22.7271 172.872 21.1038 173.541C19.4805 174.197 17.5599 174.526 15.3418 174.526C13.1237 174.526 11.2031 174.197 9.57978 173.541C7.95651 172.872 6.61204 171.917 5.54638 170.678C4.49311 169.439 3.70625 167.958 3.18581 166.236C2.66537 164.514 2.40515 162.599 2.40515 160.492C2.40515 157.68 2.86363 155.232 3.7806 153.151C4.70996 151.056 6.13497 149.433 8.05564 148.281C9.97631 147.128 12.4174 146.552 15.379 146.552C18.3281 146.552 20.7506 147.128 22.6465 148.281C24.5548 149.433 25.9674 151.056 26.8844 153.151C27.8138 155.245 28.2784 157.704 28.2784 160.53ZM8.44597 160.53C8.44597 162.426 8.68141 164.061 9.15228 165.437C9.63555 166.8 10.3852 167.853 11.4013 168.596C12.4174 169.328 13.7309 169.693 15.3418 169.693C16.9775 169.693 18.3033 169.328 19.3194 168.596C20.3355 167.853 21.0728 166.8 21.5313 165.437C22.0022 164.061 22.2376 162.426 22.2376 160.53C22.2376 157.68 21.7048 155.437 20.6391 153.801C19.5735 152.165 17.8201 151.348 15.379 151.348C13.7557 151.348 12.4298 151.719 11.4013 152.463C10.3852 153.194 9.63555 154.247 9.15228 155.623C8.68141 156.986 8.44597 158.621 8.44597 160.53Z" fill="#FFB2BE" fill-opacity="0.8"/>
<path d="M52.6759 152.983C52.9609 152.983 53.2893 153.002 53.661 153.039C54.0452 153.064 54.3549 153.101 54.5904 153.151L54.1629 158.466C53.977 158.405 53.7106 158.361 53.3636 158.336C53.0291 158.299 52.7379 158.281 52.49 158.281C51.7589 158.281 51.0464 158.374 50.3525 158.559C49.671 158.745 49.0576 159.049 48.5124 159.47C47.9672 159.879 47.5335 160.424 47.2113 161.106C46.9015 161.775 46.7466 162.599 46.7466 163.578V174.154H41.0775V153.374H45.3712L46.2076 156.868H46.4864C46.8953 156.162 47.4034 155.517 48.0105 154.935C48.6301 154.34 49.3302 153.869 50.1109 153.522C50.9039 153.163 51.7589 152.983 52.6759 152.983Z" fill="#FFB2BE" fill-opacity="0.8"/>
<path d="M74.4154 174.526C72.3584 174.526 70.6051 174.154 69.1553 173.411C67.7055 172.655 66.6026 171.49 65.8467 169.916C65.0909 168.342 64.7129 166.329 64.7129 163.875C64.7129 161.335 65.1404 159.266 65.9954 157.667C66.8628 156.056 68.0586 154.873 69.5828 154.117C71.1193 153.361 72.8975 152.983 74.9173 152.983C76.3547 152.983 77.5938 153.126 78.6347 153.411C79.688 153.683 80.6049 154.012 81.3856 154.396L79.7127 158.782C78.8206 158.423 77.9903 158.132 77.2221 157.909C76.4538 157.673 75.6855 157.556 74.9173 157.556C73.926 157.556 73.1019 157.791 72.4452 158.262C71.7884 158.721 71.299 159.414 70.9768 160.344C70.6546 161.273 70.4935 162.438 70.4935 163.838C70.4935 165.214 70.667 166.354 71.014 167.258C71.3609 168.163 71.8628 168.838 72.5195 169.284C73.1763 169.718 73.9755 169.935 74.9173 169.935C76.0944 169.935 77.1415 169.78 78.0585 169.47C78.9755 169.148 79.8676 168.702 80.735 168.132V172.983C79.8676 173.528 78.9569 173.919 78.0027 174.154C77.061 174.402 75.8652 174.526 74.4154 174.526Z" fill="#FFB2BE" fill-opacity="0.8"/>
<path d="M98.8501 145.232V151.125C98.8501 152.153 98.8129 153.132 98.7385 154.061C98.6766 154.991 98.627 155.647 98.5898 156.032H98.8872C99.3333 155.313 99.86 154.73 100.467 154.284C101.087 153.838 101.768 153.51 102.512 153.299C103.255 153.089 104.054 152.983 104.909 152.983C106.409 152.983 107.716 153.25 108.831 153.783C109.947 154.303 110.814 155.127 111.434 156.255C112.053 157.37 112.363 158.82 112.363 160.604V174.154H106.694V162.017C106.694 160.53 106.421 159.408 105.876 158.652C105.331 157.896 104.488 157.519 103.348 157.519C102.208 157.519 101.31 157.785 100.653 158.318C99.9963 158.838 99.5316 159.613 99.259 160.641C98.9864 161.657 98.8501 162.903 98.8501 164.377V174.154H93.181V145.232H98.8501Z" fill="#FFB2BE" fill-opacity="0.8"/>
<path d="M131.482 153.374V174.154H125.813V153.374H131.482ZM128.656 145.232C129.499 145.232 130.224 145.431 130.831 145.827C131.438 146.211 131.742 146.936 131.742 148.002C131.742 149.055 131.438 149.786 130.831 150.195C130.224 150.592 129.499 150.79 128.656 150.79C127.801 150.79 127.07 150.592 126.463 150.195C125.868 149.786 125.571 149.055 125.571 148.002C125.571 146.936 125.868 146.211 126.463 145.827C127.07 145.431 127.801 145.232 128.656 145.232Z" fill="#FFB2BE" fill-opacity="0.8"/>
<path d="M151.641 174.526C149.324 174.526 147.434 173.621 145.972 171.812C144.522 169.991 143.797 167.32 143.797 163.801C143.797 160.245 144.535 157.556 146.009 155.734C147.484 153.9 149.411 152.983 151.79 152.983C152.781 152.983 153.655 153.12 154.411 153.392C155.167 153.665 155.817 154.03 156.362 154.489C156.92 154.947 157.391 155.462 157.775 156.032H157.961C157.886 155.635 157.794 155.053 157.682 154.284C157.583 153.504 157.533 152.704 157.533 151.887V145.232H163.221V174.154H158.872L157.775 171.459H157.533C157.174 172.029 156.722 172.549 156.176 173.02C155.644 173.479 155.005 173.844 154.262 174.117C153.519 174.39 152.645 174.526 151.641 174.526ZM153.63 170.009C155.179 170.009 156.269 169.551 156.901 168.634C157.546 167.704 157.886 166.31 157.924 164.452V163.838C157.924 161.818 157.614 160.276 156.994 159.21C156.375 158.132 155.222 157.593 153.537 157.593C152.286 157.593 151.307 158.132 150.6 159.21C149.894 160.288 149.541 161.843 149.541 163.875C149.541 165.908 149.894 167.438 150.6 168.466C151.319 169.495 152.329 170.009 153.63 170.009Z" fill="#FFB2BE" fill-opacity="0.8"/>
<path d="M24.3902 195.267C24.3902 195.741 24.2709 196.138 24.0324 196.46C23.7938 196.778 23.4704 197.018 23.062 197.181C22.6536 197.34 22.1909 197.42 21.6741 197.42C21.3525 197.42 21.0597 197.403 20.7959 197.371C20.5357 197.342 20.2989 197.302 20.0857 197.252C19.8761 197.201 19.6845 197.143 19.511 197.078V196.52C19.7929 196.628 20.1182 196.724 20.4869 196.807C20.8591 196.887 21.2639 196.926 21.7012 196.926C22.1132 196.926 22.4783 196.867 22.7963 196.747C23.118 196.628 23.371 196.447 23.5553 196.205C23.7396 195.963 23.8318 195.658 23.8318 195.289C23.8318 194.964 23.7541 194.698 23.5987 194.492C23.4469 194.283 23.2174 194.104 22.9102 193.955C22.603 193.804 22.2162 193.65 21.75 193.495C21.4247 193.383 21.1284 193.265 20.8609 193.142C20.5971 193.016 20.3712 192.871 20.1833 192.709C19.9953 192.542 19.8508 192.344 19.7496 192.112C19.652 191.877 19.6032 191.601 19.6032 191.283C19.6032 190.845 19.7134 190.479 19.9339 190.182C20.158 189.882 20.4598 189.656 20.8392 189.505C21.2223 189.349 21.6524 189.271 22.1295 189.271C22.509 189.271 22.8686 189.308 23.2083 189.38C23.5517 189.449 23.8824 189.553 24.2004 189.694L24.0053 190.177C23.6872 190.039 23.3692 189.938 23.0511 189.873C22.7331 189.808 22.4186 189.776 22.1078 189.776C21.7356 189.776 21.4031 189.832 21.1103 189.944C20.8212 190.052 20.5917 190.217 20.4218 190.437C20.2519 190.658 20.167 190.936 20.167 191.272C20.167 191.619 20.2447 191.899 20.4001 192.112C20.5592 192.325 20.7832 192.503 21.0724 192.644C21.3651 192.784 21.7103 192.922 22.1078 193.056C22.5777 193.215 22.9824 193.383 23.3222 193.56C23.6619 193.733 23.9239 193.954 24.1083 194.221C24.2962 194.489 24.3902 194.837 24.3902 195.267Z" fill="#DED1D3"/>
<path d="M27.7513 191.418H28.3314L29.7626 195.159C29.8494 195.379 29.9253 195.584 29.9903 195.772C30.059 195.956 30.1186 196.126 30.1692 196.281C30.2198 196.433 30.2614 196.572 30.2939 196.699H30.3264C30.3806 196.532 30.4529 196.319 30.5433 196.059C30.6336 195.795 30.7366 195.502 30.8523 195.181L32.2672 191.418H32.8527L30.1638 198.417C30.0337 198.757 29.8909 199.044 29.7355 199.279C29.5801 199.518 29.3976 199.697 29.188 199.816C28.9783 199.939 28.7254 200 28.429 200C28.2953 200 28.1742 199.989 28.0658 199.968C27.9573 199.95 27.8525 199.924 27.7513 199.892V199.42C27.8453 199.449 27.9411 199.472 28.0387 199.491C28.1399 199.512 28.2501 199.523 28.3694 199.523C28.5754 199.523 28.7525 199.48 28.9006 199.393C29.0524 199.31 29.188 199.18 29.3072 199.003C29.4265 198.826 29.5385 198.6 29.6434 198.325L30.0445 197.279L27.7513 191.418Z" fill="#DED1D3"/>
<path d="M39.1902 191.304C39.8516 191.304 40.3593 191.478 40.7135 191.825C41.0677 192.172 41.2448 192.716 41.2448 193.457V197.311H40.7027V193.489C40.7027 192.904 40.569 192.474 40.3015 192.199C40.0341 191.924 39.6456 191.787 39.136 191.787C38.489 191.787 37.9939 191.977 37.6505 192.356C37.3108 192.732 37.1409 193.301 37.1409 194.064V197.311H36.5934V191.418H37.0379L37.1193 192.492H37.1518C37.2566 192.271 37.3993 192.072 37.5801 191.895C37.7644 191.715 37.9903 191.572 38.2577 191.467C38.5252 191.359 38.836 191.304 39.1902 191.304Z" fill="#DED1D3"/>
<path d="M48.2924 197.42C47.7069 197.42 47.2118 197.299 46.807 197.056C46.4058 196.811 46.1023 196.462 45.8962 196.01C45.6939 195.555 45.5927 195.016 45.5927 194.395C45.5927 193.748 45.7101 193.195 45.945 192.736C46.18 192.273 46.5107 191.919 46.9371 191.673C47.3636 191.427 47.8642 191.304 48.4388 191.304C48.7207 191.304 48.9827 191.33 49.2249 191.38C49.467 191.431 49.6857 191.501 49.8809 191.592L49.7345 192.074C49.5321 191.984 49.3171 191.915 49.0894 191.868C48.8617 191.821 48.643 191.798 48.4334 191.798C47.9491 191.798 47.5371 191.904 47.1973 192.118C46.8612 192.327 46.6028 192.627 46.4221 193.018C46.245 193.404 46.1565 193.861 46.1565 194.389C46.1565 194.884 46.2324 195.323 46.3842 195.707C46.536 196.086 46.7691 196.386 47.0835 196.606C47.3979 196.823 47.8009 196.932 48.2924 196.932C48.578 196.932 48.849 196.903 49.1056 196.845C49.3658 196.787 49.6026 196.713 49.8158 196.623V197.121C49.6243 197.208 49.402 197.279 49.149 197.333C48.8996 197.391 48.6141 197.42 48.2924 197.42Z" fill="#DED1D3"/>
<path d="M60.1867 188.876V191.272C60.1867 191.478 60.183 191.704 60.1758 191.95C60.1686 192.195 60.1614 192.4 60.1541 192.562H60.1867C60.3276 192.197 60.5734 191.895 60.9239 191.657C61.2745 191.418 61.7118 191.299 62.2359 191.299C63.0021 191.299 63.593 191.557 64.0086 192.074C64.4279 192.591 64.6375 193.348 64.6375 194.346C64.6375 194.957 64.5435 195.493 64.3556 195.956C64.1677 196.415 63.8876 196.775 63.5153 197.035C63.1467 197.291 62.684 197.42 62.1275 197.42C61.6251 197.42 61.2149 197.315 60.8968 197.105C60.5788 196.892 60.3475 196.626 60.2029 196.308H60.1595L60.0565 197.311H59.6391V188.876H60.1867ZM62.1763 191.776C61.71 191.776 61.3305 191.877 61.0378 192.08C60.745 192.278 60.53 192.569 60.3927 192.953C60.2553 193.336 60.1867 193.804 60.1867 194.357V194.443C60.1867 195.257 60.3348 195.876 60.6312 196.303C60.9276 196.729 61.4082 196.943 62.0732 196.943C62.731 196.943 63.228 196.718 63.5641 196.27C63.9038 195.819 64.0737 195.177 64.0737 194.346C64.0737 193.496 63.9165 192.857 63.602 192.427C63.2876 191.993 62.8123 191.776 62.1763 191.776Z" fill="#DED1D3"/>
<path d="M73.9241 194.357C73.9241 194.812 73.8681 195.228 73.756 195.604C73.644 195.976 73.4777 196.297 73.2573 196.568C73.0368 196.84 72.7621 197.049 72.4332 197.197C72.108 197.346 71.7285 197.42 71.2948 197.42C70.8828 197.42 70.5159 197.347 70.1943 197.203C69.8726 197.055 69.5997 196.845 69.3757 196.574C69.1552 196.303 68.9871 195.981 68.8715 195.609C68.7558 195.233 68.698 194.816 68.698 194.357C68.698 193.724 68.8028 193.18 69.0124 192.725C69.2257 192.266 69.5293 191.915 69.9232 191.673C70.3208 191.427 70.796 191.304 71.349 191.304C71.92 191.304 72.3953 191.435 72.7748 191.695C73.1579 191.951 73.4452 192.309 73.6368 192.768C73.8283 193.227 73.9241 193.757 73.9241 194.357ZM69.2618 194.357C69.2618 194.873 69.3359 195.325 69.4841 195.712C69.6323 196.099 69.8564 196.4 70.1563 196.617C70.4599 196.834 70.843 196.943 71.3056 196.943C71.7791 196.943 72.1676 196.834 72.4712 196.617C72.7748 196.4 72.9989 196.097 73.1434 195.707C73.288 195.316 73.3603 194.866 73.3603 194.357C73.3603 193.861 73.2916 193.421 73.1543 193.034C73.0169 192.647 72.8001 192.344 72.5037 192.123C72.2074 191.899 71.8206 191.787 71.3436 191.787C70.6605 191.787 70.1419 192.015 69.7877 192.47C69.4371 192.925 69.2618 193.554 69.2618 194.357Z" fill="#DED1D3"/>
<path d="M83.2161 194.357C83.2161 194.812 83.1601 195.228 83.0481 195.604C82.936 195.976 82.7698 196.297 82.5493 196.568C82.3288 196.84 82.0542 197.049 81.7253 197.197C81.4 197.346 81.0205 197.42 80.5868 197.42C80.1748 197.42 79.808 197.347 79.4863 197.203C79.1646 197.055 78.8918 196.845 78.6677 196.574C78.4472 196.303 78.2792 195.981 78.1635 195.609C78.0479 195.233 77.99 194.816 77.99 194.357C77.99 193.724 78.0948 193.18 78.3045 192.725C78.5177 192.266 78.8213 191.915 79.2152 191.673C79.6128 191.427 80.088 191.304 80.641 191.304C81.2121 191.304 81.6873 191.435 82.0668 191.695C82.4499 191.951 82.7372 192.309 82.9288 192.768C83.1203 193.227 83.2161 193.757 83.2161 194.357ZM78.5538 194.357C78.5538 194.873 78.6279 195.325 78.7761 195.712C78.9243 196.099 79.1484 196.4 79.4483 196.617C79.7519 196.834 80.135 196.943 80.5976 196.943C81.0711 196.943 81.4596 196.834 81.7632 196.617C82.0668 196.4 82.2909 196.097 82.4354 195.707C82.58 195.316 82.6523 194.866 82.6523 194.357C82.6523 193.861 82.5836 193.421 82.4463 193.034C82.309 192.647 82.0921 192.344 81.7957 192.123C81.4994 191.899 81.1127 191.787 80.6356 191.787C79.9525 191.787 79.4339 192.015 79.0797 192.47C78.7291 192.925 78.5538 193.554 78.5538 194.357Z" fill="#DED1D3"/>
<path d="M88.1657 188.876V193.131C88.1657 193.395 88.1621 193.665 88.1549 193.939C88.1513 194.21 88.1458 194.481 88.1386 194.752H88.1494C88.2543 194.629 88.3627 194.501 88.4747 194.367C88.5904 194.23 88.7042 194.098 88.8163 193.972L91.1474 191.418H91.8088L89.4831 193.945L92.0148 197.311H91.3588L89.109 194.308L88.1657 195.3V197.311H87.6182V188.876H88.1657Z" fill="#DED1D3"/>
<path d="M103.779 191.315C103.934 191.315 104.081 191.324 104.218 191.342C104.355 191.36 104.484 191.386 104.603 191.418L104.516 191.922C104.397 191.89 104.276 191.866 104.153 191.852C104.03 191.834 103.898 191.825 103.757 191.825C103.479 191.825 103.23 191.877 103.009 191.982C102.792 192.087 102.608 192.237 102.456 192.432C102.304 192.627 102.189 192.862 102.109 193.137C102.03 193.412 101.99 193.719 101.99 194.058V197.311H101.437V191.418H101.909L101.963 192.53H101.995C102.086 192.302 102.212 192.098 102.375 191.917C102.541 191.733 102.742 191.586 102.977 191.478C103.211 191.37 103.479 191.315 103.779 191.315Z" fill="#DED1D3"/>
<path d="M110.767 191.304C111.269 191.304 111.687 191.422 112.019 191.657C112.355 191.892 112.605 192.213 112.767 192.622C112.934 193.03 113.017 193.498 113.017 194.026V194.422H108.761C108.761 195.231 108.947 195.853 109.319 196.287C109.695 196.72 110.232 196.937 110.93 196.937C111.295 196.937 111.611 196.908 111.878 196.85C112.149 196.789 112.449 196.686 112.778 196.541V197.046C112.489 197.176 112.2 197.27 111.911 197.327C111.622 197.389 111.289 197.42 110.913 197.42C110.317 197.42 109.816 197.297 109.412 197.051C109.01 196.802 108.707 196.451 108.501 195.999C108.298 195.547 108.197 195.02 108.197 194.416C108.197 193.827 108.295 193.298 108.49 192.828C108.689 192.358 108.978 191.988 109.357 191.716C109.74 191.442 110.21 191.304 110.767 191.304ZM110.761 191.776C110.198 191.776 109.74 191.964 109.39 192.34C109.043 192.712 108.839 193.251 108.777 193.955H112.447C112.447 193.525 112.386 193.146 112.263 192.817C112.14 192.488 111.954 192.233 111.705 192.053C111.459 191.868 111.145 191.776 110.761 191.776Z" fill="#DED1D3"/>
<path d="M119.473 191.315C120.12 191.315 120.605 191.478 120.926 191.803C121.248 192.128 121.409 192.647 121.409 193.359V197.311H120.986L120.888 196.281H120.856C120.729 196.502 120.576 196.699 120.395 196.872C120.214 197.042 119.992 197.176 119.728 197.273C119.468 197.371 119.15 197.42 118.774 197.42C118.395 197.42 118.069 197.356 117.798 197.23C117.531 197.103 117.323 196.919 117.175 196.677C117.03 196.435 116.958 196.14 116.958 195.793C116.958 195.208 117.2 194.763 117.684 194.46C118.169 194.152 118.864 193.979 119.772 193.939L120.867 193.885V193.457C120.867 192.853 120.747 192.423 120.509 192.166C120.27 191.91 119.918 191.782 119.452 191.782C119.148 191.782 118.855 191.821 118.573 191.901C118.295 191.977 118.011 192.087 117.722 192.231L117.549 191.776C117.831 191.642 118.133 191.532 118.454 191.445C118.779 191.359 119.119 191.315 119.473 191.315ZM120.861 194.313L119.831 194.357C119.083 194.393 118.514 194.526 118.124 194.758C117.733 194.989 117.538 195.336 117.538 195.799C117.538 196.171 117.654 196.456 117.885 196.655C118.12 196.854 118.445 196.953 118.861 196.953C119.508 196.953 120.001 196.769 120.341 196.4C120.684 196.032 120.858 195.529 120.861 194.893V194.313Z" fill="#DED1D3"/>
<path d="M128.212 197.42C127.406 197.42 126.792 197.167 126.369 196.661C125.95 196.151 125.74 195.41 125.74 194.438C125.74 193.419 125.963 192.642 126.407 192.107C126.852 191.572 127.472 191.304 128.267 191.304C128.606 191.304 128.901 191.357 129.15 191.462C129.403 191.566 129.615 191.709 129.785 191.89C129.958 192.067 130.092 192.269 130.186 192.497H130.229C130.215 192.306 130.204 192.1 130.197 191.879C130.189 191.659 130.186 191.456 130.186 191.272V188.876H130.733V197.311H130.289L130.218 196.232H130.186C130.088 196.449 129.953 196.648 129.779 196.829C129.609 197.009 129.396 197.154 129.139 197.262C128.883 197.367 128.574 197.42 128.212 197.42ZM128.272 196.943C128.966 196.943 129.459 196.728 129.752 196.297C130.045 195.864 130.191 195.246 130.191 194.443V194.357C130.191 193.525 130.045 192.889 129.752 192.448C129.459 192.004 128.982 191.782 128.321 191.782C127.667 191.782 127.166 192.009 126.819 192.465C126.476 192.92 126.304 193.581 126.304 194.449C126.304 195.266 126.465 195.885 126.787 196.308C127.112 196.731 127.607 196.943 128.272 196.943Z" fill="#DED1D3"/>
<path d="M137.7 191.304C138.202 191.304 138.619 191.422 138.952 191.657C139.288 191.892 139.537 192.213 139.7 192.622C139.866 193.03 139.949 193.498 139.949 194.026V194.422H135.694C135.694 195.231 135.88 195.853 136.252 196.287C136.628 196.72 137.165 196.937 137.862 196.937C138.227 196.937 138.544 196.908 138.811 196.85C139.082 196.789 139.382 196.686 139.711 196.541V197.046C139.422 197.176 139.133 197.27 138.844 197.327C138.554 197.389 138.222 197.42 137.846 197.42C137.25 197.42 136.749 197.297 136.344 197.051C135.943 196.802 135.64 196.451 135.434 195.999C135.231 195.547 135.13 195.02 135.13 194.416C135.13 193.827 135.228 193.298 135.423 192.828C135.621 192.358 135.911 191.988 136.29 191.716C136.673 191.442 137.143 191.304 137.7 191.304ZM137.694 191.776C137.13 191.776 136.673 191.964 136.323 192.34C135.976 192.712 135.771 193.251 135.71 193.955H139.38C139.38 193.525 139.319 193.146 139.196 192.817C139.073 192.488 138.887 192.233 138.638 192.053C138.392 191.868 138.077 191.776 137.694 191.776Z" fill="#DED1D3"/>
<path d="M146.693 191.315C146.849 191.315 146.995 191.324 147.133 191.342C147.27 191.36 147.398 191.386 147.518 191.418L147.431 191.922C147.312 191.89 147.19 191.866 147.068 191.852C146.945 191.834 146.813 191.825 146.672 191.825C146.394 191.825 146.144 191.877 145.924 191.982C145.707 192.087 145.522 192.237 145.371 192.432C145.219 192.627 145.103 192.862 145.024 193.137C144.944 193.412 144.904 193.719 144.904 194.058V197.311H144.352V191.418H144.823L144.877 192.53H144.91C145 192.302 145.127 192.098 145.289 191.917C145.456 191.733 145.656 191.586 145.891 191.478C146.126 191.37 146.394 191.315 146.693 191.315Z" fill="#DED1D3"/>
<g filter="url(#filter0_d_1522_547)">
<path d="M154.927 106.191C155.981 106.175 156.894 106.195 157.633 106.259C158.358 106.321 158.965 106.429 159.378 106.61C160.785 107.229 161.688 108.017 162.175 108.893C162.665 109.775 162.705 110.698 162.474 111.52C162.246 112.333 161.755 113.051 161.172 113.565C160.597 114.074 159.879 114.429 159.178 114.426C158.085 114.42 148.148 114.065 135.791 115.114C123.446 116.162 108.758 118.607 98.0921 124.156C95.4872 126.862 93.3969 128.968 91.1478 130.514C88.9452 132.027 83.9015 133.573 83.4104 133.573C82.9183 133.573 77.6642 132.027 75.4622 130.514C73.2131 128.968 71.1228 126.862 68.5179 124.156C57.8519 118.607 43.1643 116.162 30.8187 115.114C18.4647 114.066 8.52949 114.42 7.43291 114.426C6.73203 114.43 6.01384 114.073 5.43877 113.565C4.85624 113.051 4.36444 112.333 4.13603 111.52C3.90538 110.698 3.94483 109.775 4.43486 108.893C4.92161 108.017 5.82498 107.229 7.23174 106.61C7.6452 106.428 8.25293 106.321 8.97783 106.259C9.71689 106.195 10.6292 106.175 11.6829 106.191C13.7921 106.224 16.5032 106.404 19.5989 106.699C25.7925 107.289 33.561 108.339 41.2171 109.587C48.8728 110.835 56.4272 112.284 62.1907 113.673C65.0704 114.367 67.5157 115.048 69.306 115.687C70.1995 116.005 70.9458 116.319 71.5052 116.623C71.7844 116.775 72.0285 116.932 72.2249 117.093C72.4166 117.25 72.5923 117.435 72.6956 117.653C73.5919 119.546 75.7677 121.646 78.055 123.316C79.1889 124.144 80.3309 124.852 81.3216 125.363C82.1468 125.789 82.9358 126.1 83.4104 126.207C83.8851 126.1 84.4632 125.789 85.2884 125.363C86.2791 124.852 87.421 124.145 88.555 123.316C90.8423 121.646 93.0181 119.546 93.9144 117.653C94.0177 117.435 94.1933 117.25 94.3851 117.093C94.5816 116.932 94.8262 116.775 95.1058 116.623C95.6652 116.319 96.4113 116.005 97.305 115.687C99.0952 115.048 101.54 114.367 104.419 113.673C110.183 112.284 117.737 110.835 125.393 109.587C133.049 108.339 140.817 107.289 147.011 106.699C150.107 106.404 152.818 106.224 154.927 106.191ZM12.4944 100.723C13.6377 100.651 15.2587 100.659 17.2395 100.75C21.2062 100.932 26.6643 101.451 32.7386 102.362C44.8639 104.181 59.5184 107.576 69.6761 113.027C69.6824 113.031 69.6893 113.034 69.6956 113.037C70.286 113.346 70.8532 113.664 71.3938 113.994L70.8792 114.852C70.8773 114.85 70.8752 114.849 70.8733 114.848C70.8661 114.843 70.8581 114.839 70.8509 114.835C70.3249 114.524 69.7826 114.22 69.2269 113.921L69.2249 113.92C60.4302 109.328 45.9196 106.949 33.3147 105.747C27.0244 105.147 21.2315 104.842 16.9007 104.697C12.5531 104.552 9.71357 104.569 9.304 104.606C9.0549 104.629 8.75666 104.624 8.5208 104.472C8.38455 104.383 8.27982 104.252 8.23076 104.089C8.18527 103.937 8.19842 103.793 8.22392 103.684C8.27266 103.475 8.39341 103.275 8.5081 103.115C8.63011 102.945 8.7821 102.77 8.93974 102.603C9.25606 102.267 9.62805 101.931 9.91533 101.683C10.0596 101.558 10.1852 101.453 10.2747 101.38C10.2965 101.362 10.317 101.345 10.3343 101.331C10.4243 101.194 10.551 101.11 10.6331 101.065C10.7721 100.99 10.9399 100.937 11.1097 100.896C11.4548 100.814 11.9266 100.758 12.4944 100.723ZM150.007 100.75C151.988 100.659 153.609 100.651 154.752 100.723C155.32 100.758 155.792 100.814 156.137 100.896C156.307 100.937 156.475 100.99 156.614 101.065C156.696 101.11 156.822 101.194 156.912 101.331C156.93 101.345 156.95 101.362 156.972 101.38C157.062 101.453 157.187 101.558 157.331 101.683C157.619 101.931 157.991 102.267 158.307 102.603C158.465 102.77 158.617 102.945 158.739 103.115C158.853 103.275 158.974 103.475 159.023 103.684C159.048 103.793 159.061 103.937 159.016 104.089C158.967 104.252 158.862 104.383 158.726 104.472C158.49 104.624 158.192 104.629 157.943 104.606C157.534 104.569 154.695 104.552 150.346 104.697C146.015 104.842 140.222 105.147 133.932 105.747C121.327 106.949 106.817 109.329 98.0218 113.92L98.0198 113.921C97.4641 114.22 96.9218 114.524 96.3958 114.835C96.3886 114.839 96.3806 114.843 96.3733 114.848C96.3715 114.849 96.3693 114.85 96.3675 114.852L95.8528 113.994C96.3935 113.664 96.9606 113.346 97.5511 113.037C97.5574 113.034 97.5643 113.031 97.5706 113.027C107.728 107.576 122.383 104.181 134.508 102.362C140.582 101.451 146.041 100.932 150.007 100.75ZM19.6907 95.4238C23.6943 95.4629 29.1047 95.7598 35.1673 96.6406C47.2812 98.4008 62.0588 102.5 73.4095 111.578L72.844 112.399C60.7076 105.27 46.0846 101.788 34.1468 100.12C22.2079 98.4526 13.0091 98.6066 11.7562 98.7158C11.4129 98.7457 11.121 98.748 10.8812 98.7197C10.653 98.6927 10.4122 98.6319 10.2249 98.4863C10.0006 98.3117 9.90076 98.0527 9.93877 97.7852C9.97057 97.5623 10.0914 97.3724 10.2034 97.2334C10.4346 96.9467 10.8038 96.6638 11.1976 96.4219C11.6001 96.1746 12.0681 95.9456 12.5276 95.7822C12.6972 95.7221 12.9965 95.6756 13.3499 95.6357C13.7257 95.5933 14.2226 95.5532 14.8265 95.5186C16.0355 95.4493 17.6891 95.4043 19.6907 95.4238ZM146.339 95.4238C148.341 95.4043 149.994 95.4493 151.203 95.5186C151.807 95.5532 152.304 95.5933 152.68 95.6357C153.033 95.6756 153.333 95.7221 153.502 95.7822C153.962 95.9456 154.43 96.1745 154.832 96.4219C155.226 96.6639 155.595 96.9466 155.826 97.2334C155.939 97.3725 156.059 97.5622 156.091 97.7852C156.129 98.0528 156.029 98.3117 155.805 98.4863C155.618 98.6319 155.377 98.6928 155.149 98.7197C154.909 98.748 154.617 98.7458 154.274 98.7158C153.02 98.6066 143.821 98.4526 131.883 100.12C119.945 101.788 105.322 105.27 93.1858 112.399L92.6204 111.578C103.971 102.5 118.749 98.4008 130.863 96.6406C136.925 95.7598 142.336 95.463 146.339 95.4238ZM147.777 32.4023L147.75 32.9248C147.374 40.6281 147.453 48.0815 146.722 54.8643C145.988 61.6683 144.433 67.9023 140.742 73.2363C140.352 73.7985 139.937 74.3489 139.5 74.8896C140.113 74.3504 140.923 73.9481 141.876 74.1631C142.235 74.244 142.655 74.5076 143.07 74.8203C143.504 75.148 144.003 75.5839 144.532 76.084C145.59 77.0854 146.798 78.3725 147.908 79.6406C149.019 80.9085 150.043 82.1687 150.73 83.1172C151.07 83.5865 151.342 83.9994 151.498 84.3057C151.57 84.4455 151.648 84.6227 151.666 84.792C151.675 84.8749 151.679 85.0455 151.568 85.2061C151.436 85.396 151.236 85.4452 151.1 85.4453H151.094C151.091 85.4454 151.085 85.4461 151.079 85.4463C151.068 85.4466 151.052 85.4466 151.033 85.4473C150.993 85.4487 150.941 85.451 150.875 85.4541C150.744 85.4603 150.563 85.4698 150.334 85.4834C149.878 85.5105 149.234 85.554 148.426 85.6162C146.81 85.7406 144.539 85.9422 141.805 86.2539C136.336 86.8775 129.016 87.9386 121.365 89.6855C113.71 91.4332 105.739 93.8637 98.9593 97.2217C92.2771 100.531 86.3167 105.228 83.4104 110.492C80.5043 105.228 74.4646 100.531 67.7825 97.2217C61.003 93.8638 53.032 91.4332 45.3772 89.6855C37.7255 87.9386 30.4056 86.8775 24.9368 86.2539C22.2031 85.9422 19.932 85.7406 18.3157 85.6162C17.5081 85.554 16.8633 85.5105 16.4065 85.4834C16.1785 85.4699 15.9964 85.4603 15.8655 85.4541C15.8004 85.451 15.7472 85.4487 15.7083 85.4473C15.6893 85.4466 15.6732 85.4466 15.6614 85.4463C15.6561 85.4461 15.6512 85.4454 15.6478 85.4453H15.6419C15.5056 85.4452 15.3052 85.3962 15.1731 85.2061C15.0619 85.0455 15.0658 84.8749 15.0745 84.792C15.0925 84.6227 15.1711 84.4455 15.2425 84.3057C15.3988 83.9994 15.6719 83.5867 16.012 83.1172C16.6991 82.1687 17.7218 80.9084 18.8323 79.6406C19.9432 78.3725 21.1512 77.0854 22.2093 76.084C22.7376 75.5839 23.2365 75.148 23.6712 74.8203C24.086 74.5076 24.5062 74.2441 24.8645 74.1631C26.1297 73.8775 27.1428 74.6803 27.7776 75.4463C28.1062 75.8428 28.3678 76.2686 28.553 76.6279C28.7285 76.9684 28.8637 77.3044 28.8958 77.5146C28.9185 77.6648 28.8793 77.7994 28.8548 77.8721C28.8255 77.9587 28.7847 78.0474 28.7415 78.1299C28.6544 78.296 28.5315 78.4897 28.3958 78.6904C28.1352 79.0759 27.7923 79.5368 27.4661 79.9746L27.4212 80.0352C27.1396 80.4131 26.8755 80.7682 26.678 81.0557C29.7594 81.1785 32.6485 81.3673 35.3958 81.6113C31.5499 79.1825 28.673 76.3736 26.5169 73.2344C22.8536 67.9005 21.3111 61.667 20.5833 54.8633C19.8578 48.0807 19.9365 40.6283 19.5628 32.9248L19.5374 32.4023L20.0608 32.4004C33.2857 32.3729 47.1712 33.6057 58.7923 39.8779C70.0086 45.9318 79.056 56.6481 83.4124 75.2773C87.8028 56.6462 96.9216 45.9302 108.224 39.877C119.934 33.6057 133.925 32.3728 147.252 32.4004L147.777 32.4023ZM15.6302 89.3662C28.3422 89.0738 38.2238 90.0077 47.6468 92.9629C57.0686 95.9178 65.9999 100.884 76.8255 108.611L76.2718 109.443C47.4463 91.5847 15.8953 93.6659 13.7083 93.8027C13.4043 93.8217 13.1219 93.8048 12.887 93.7207C12.6334 93.6298 12.4035 93.4453 12.3216 93.1426C12.2499 92.8771 12.3211 92.6196 12.4036 92.4287C12.4905 92.2279 12.6235 92.0243 12.7728 91.8301C13.3624 91.0629 14.4513 90.1356 15.3411 89.4668L15.469 89.3701L15.6302 89.3662ZM120.254 92.9629C129.677 90.0077 139.559 89.0738 152.271 89.3662L152.432 89.3701L152.56 89.4668C153.45 90.1356 154.539 91.0629 155.128 91.8301C155.277 92.0243 155.41 92.2279 155.497 92.4287C155.58 92.6196 155.651 92.8771 155.579 93.1426C155.497 93.4452 155.268 93.6298 155.014 93.7207C154.779 93.8047 154.497 93.8217 154.193 93.8027C152.006 93.6659 120.455 91.5847 91.6292 109.443L91.0755 108.611C101.901 100.884 110.832 95.9178 120.254 92.9629ZM138.562 75.9912C136.741 78.0195 134.537 79.8826 131.867 81.5645C134.458 81.3426 137.176 81.1707 140.063 81.0557C139.865 80.7683 139.602 80.413 139.321 80.0352L139.276 79.9746C138.949 79.5367 138.606 79.076 138.345 78.6904C138.209 78.4897 138.087 78.296 138 78.1299C137.957 78.0474 137.916 77.9587 137.887 77.8721C137.863 77.7994 137.822 77.6648 137.845 77.5146C137.877 77.3044 138.012 76.9685 138.188 76.6279C138.29 76.4303 138.415 76.213 138.562 75.9912ZM83.4104 0C83.4104 0 104.913 20.2549 109.421 37.1953L109.529 37.6006L109.146 37.7705C101.809 41.0249 96.8627 44.3338 93.0706 48.8555C89.2731 53.3838 86.1338 59.5044 83.4104 67.7686C80.6871 59.5044 77.5479 53.3838 73.7503 48.8555C69.9581 44.3337 65.0118 41.0249 57.6751 37.7705L57.2923 37.6006L57.3997 37.1953C61.9022 20.2751 83.3592 0.0482989 83.4104 0ZM44.2806 11.3086C51.4042 13.6711 55.2925 14.6071 62.5608 19.2188L62.9329 19.4541L62.7454 19.8535C60.5196 24.5875 59.0682 28.554 56.3763 35.5352L56.2171 35.9482L55.7874 35.8398C50.6523 34.5476 46.0717 33.4155 42.7269 32.3721C41.0563 31.8509 39.6685 31.3445 38.6663 30.8418C38.166 30.5908 37.7413 30.3302 37.4212 30.0566C37.1075 29.7884 36.8451 29.4651 36.7601 29.0781L36.7327 28.9561L36.7669 28.835C39.0069 20.9107 41.423 16.297 43.6722 11.5684L43.8616 11.1699L44.2806 11.3086ZM123.639 11.5684C125.888 16.2971 128.304 20.9105 130.544 28.835L130.578 28.9561L130.551 29.0781C130.466 29.465 130.204 29.7884 129.89 30.0566C129.57 30.3302 129.145 30.5909 128.645 30.8418C127.643 31.3445 126.255 31.8509 124.584 32.3721C121.239 33.4155 116.659 34.5476 111.524 35.8398L111.094 35.9482L110.935 35.5352C108.243 28.5538 106.792 24.5876 104.566 19.8535L104.378 19.4541L104.75 19.2188C112.019 14.6072 115.907 13.671 123.031 11.3086L123.45 11.1699L123.639 11.5684Z" fill="#FFB2BE" fill-opacity="0.8" shape-rendering="crispEdges"/>
</g>
<defs>
<filter id="filter0_d_1522_547" x="0" y="0" width="166.61" height="141.573" filterUnits="userSpaceOnUse" color-interpolation-filters="sRGB">
<feFlood flood-opacity="0" result="BackgroundImageFix"/>
<feColorMatrix in="SourceAlpha" type="matrix" values="0 0 0 0 0 0 0 0 0 0 0 0 0 0 0 0 0 0 127 0" result="hardAlpha"/>
<feOffset dy="4"/>
<feGaussianBlur stdDeviation="2"/>
<feComposite in2="hardAlpha" operator="out"/>
<feColorMatrix type="matrix" values="0 0 0 0 0 0 0 0 0 0 0 0 0 0 0 0 0 0 0.25 0"/>
<feBlend mode="normal" in2="BackgroundImageFix" result="effect1_dropShadow_1522_547"/>
<feBlend mode="normal" in="SourceGraphic" in2="effect1_dropShadow_1522_547" result="shape"/>
</filter>
</defs>
</svg>
