<svg width="161" height="200" viewBox="0 0 161 200" fill="none" xmlns="http://www.w3.org/2000/svg">
<path d="M25.9029 160.53C25.9029 162.624 25.6424 164.532 25.1214 166.254C24.6003 167.964 23.8064 169.439 22.7395 170.678C21.685 171.917 20.3452 172.871 18.7201 173.541C17.0949 174.197 15.1721 174.526 12.9515 174.526C10.7309 174.526 8.80798 174.197 7.18285 173.541C5.55771 172.871 4.2117 171.917 3.14482 170.678C2.09035 169.439 1.30259 167.958 0.781553 166.236C0.260518 164.513 0 162.599 0 160.492C0 157.68 0.459008 155.232 1.37702 153.151C2.30744 151.056 3.73409 149.433 5.65696 148.281C7.57983 147.128 10.0237 146.552 12.9887 146.552C15.9412 146.552 18.3665 147.128 20.2646 148.281C22.175 149.433 23.5893 151.056 24.5073 153.151C25.4377 155.245 25.9029 157.704 25.9029 160.53ZM6.04773 160.53C6.04773 162.425 6.28344 164.061 6.75485 165.437C7.23867 166.8 7.98921 167.853 9.00647 168.596C10.0237 169.328 11.3387 169.693 12.9515 169.693C14.589 169.693 15.9164 169.328 16.9337 168.596C17.9509 167.853 18.689 166.8 19.1481 165.437C19.6195 164.061 19.8552 162.425 19.8552 160.53C19.8552 157.68 19.3217 155.437 18.2549 153.801C17.188 152.165 15.4326 151.348 12.9887 151.348C11.3635 151.348 10.0361 151.719 9.00647 152.463C7.98921 153.194 7.23867 154.247 6.75485 155.623C6.28344 156.986 6.04773 158.621 6.04773 160.53Z" fill="#FFB2BE" fill-opacity="0.8"/>
<path d="M50.3283 152.983C50.6136 152.983 50.9424 153.002 51.3146 153.039C51.6991 153.064 52.0093 153.101 52.245 153.151L51.817 158.466C51.6309 158.404 51.3642 158.361 51.0168 158.336C50.6819 158.299 50.3903 158.281 50.1422 158.281C49.4103 158.281 48.697 158.374 48.0023 158.559C47.32 158.745 46.7059 159.049 46.16 159.47C45.6142 159.879 45.18 160.424 44.8574 161.106C44.5473 161.775 44.3922 162.599 44.3922 163.578V174.154H38.7167V153.374H43.0152L43.8526 156.868H44.1317C44.5411 156.162 45.0497 155.517 45.6576 154.935C46.2779 154.34 46.9788 153.869 47.7604 153.522C48.5543 153.163 49.4103 152.983 50.3283 152.983Z" fill="#FFB2BE" fill-opacity="0.8"/>
<path d="M72.0927 174.526C70.0334 174.526 68.278 174.154 66.8265 173.41C65.3751 172.655 64.271 171.49 63.5142 169.916C62.7575 168.342 62.3791 166.329 62.3791 163.875C62.3791 161.335 62.8071 159.266 63.6631 157.667C64.5315 156.056 65.7286 154.873 67.2545 154.117C68.7928 153.361 70.573 152.983 72.5951 152.983C74.0342 152.983 75.2748 153.126 76.3168 153.411C77.3713 153.683 78.2893 154.012 79.0709 154.396L77.3961 158.782C76.5029 158.423 75.6717 158.132 74.9026 157.909C74.1334 157.673 73.3643 157.556 72.5951 157.556C71.6027 157.556 70.7777 157.791 70.1202 158.262C69.4627 158.72 68.9727 159.414 68.6502 160.344C68.3276 161.273 68.1663 162.438 68.1663 163.838C68.1663 165.214 68.34 166.354 68.6874 167.258C69.0347 168.163 69.5372 168.838 70.1947 169.284C70.8522 169.718 71.6523 169.935 72.5951 169.935C73.7737 169.935 74.8219 169.78 75.74 169.47C76.658 169.148 77.5512 168.702 78.4196 168.132V172.983C77.5512 173.528 76.6394 173.919 75.6841 174.154C74.7413 174.402 73.5442 174.526 72.0927 174.526Z" fill="#FFB2BE" fill-opacity="0.8"/>
<path d="M96.5553 145.232V151.125C96.5553 152.153 96.5181 153.132 96.4437 154.061C96.3817 154.991 96.332 155.647 96.2948 156.032H96.5926C97.0392 155.313 97.5664 154.73 98.1743 154.284C98.7945 153.838 99.4769 153.51 100.221 153.299C100.966 153.089 101.766 152.983 102.622 152.983C104.123 152.983 105.432 153.25 106.548 153.782C107.665 154.303 108.533 155.127 109.153 156.255C109.774 157.37 110.084 158.82 110.084 160.604V174.154H104.408V162.017C104.408 160.53 104.135 159.408 103.589 158.652C103.043 157.896 102.2 157.518 101.059 157.518C99.9173 157.518 99.0178 157.785 98.3604 158.318C97.7029 158.838 97.2376 159.613 96.9647 160.641C96.6918 161.657 96.5553 162.903 96.5553 164.377V174.154H90.8798V145.232H96.5553Z" fill="#FFB2BE" fill-opacity="0.8"/>
<path d="M129.224 153.374V174.154H123.549V153.374H129.224ZM126.396 145.232C127.239 145.232 127.965 145.431 128.573 145.827C129.181 146.211 129.485 146.936 129.485 148.002C129.485 149.055 129.181 149.786 128.573 150.195C127.965 150.592 127.239 150.79 126.396 150.79C125.54 150.79 124.808 150.592 124.2 150.195C123.605 149.786 123.307 149.055 123.307 148.002C123.307 146.936 123.605 146.211 124.2 145.827C124.808 145.431 125.54 145.232 126.396 145.232Z" fill="#FFB2BE" fill-opacity="0.8"/>
<path d="M149.407 174.526C147.087 174.526 145.195 173.621 143.731 171.812C142.28 169.99 141.554 167.32 141.554 163.801C141.554 160.245 142.292 157.556 143.769 155.734C145.245 153.9 147.174 152.983 149.556 152.983C150.548 152.983 151.423 153.12 152.18 153.392C152.936 153.665 153.588 154.03 154.133 154.489C154.692 154.947 155.163 155.462 155.548 156.032H155.734C155.659 155.635 155.566 155.053 155.455 154.284C155.355 153.504 155.306 152.704 155.306 151.887V145.232H161V174.154H156.646L155.548 171.459H155.306C154.946 172.029 154.493 172.549 153.947 173.02C153.414 173.479 152.775 173.844 152.031 174.117C151.286 174.389 150.412 174.526 149.407 174.526ZM151.398 170.009C152.949 170.009 154.04 169.551 154.673 168.634C155.318 167.704 155.659 166.31 155.697 164.451V163.838C155.697 161.818 155.386 160.276 154.766 159.21C154.146 158.132 152.992 157.593 151.305 157.593C150.052 157.593 149.072 158.132 148.365 159.21C147.658 160.288 147.304 161.843 147.304 163.875C147.304 165.907 147.658 167.438 148.365 168.466C149.084 169.495 150.095 170.009 151.398 170.009Z" fill="#FFB2BE" fill-opacity="0.8"/>
<path d="M22.0102 195.267C22.0102 195.741 21.8908 196.138 21.652 196.46C21.4132 196.778 21.0893 197.018 20.6805 197.181C20.2716 197.34 19.8084 197.419 19.291 197.419C18.969 197.419 18.6759 197.403 18.4118 197.371C18.1513 197.342 17.9143 197.302 17.7008 197.251C17.4909 197.201 17.2992 197.143 17.1255 197.078V196.52C17.4077 196.628 17.7334 196.724 18.1024 196.807C18.4751 196.886 18.8804 196.926 19.3182 196.926C19.7307 196.926 20.0961 196.867 20.4145 196.747C20.7365 196.628 20.9898 196.447 21.1744 196.205C21.3589 195.963 21.4512 195.658 21.4512 195.289C21.4512 194.964 21.3734 194.698 21.2178 194.492C21.0658 194.282 20.836 194.103 20.5285 193.955C20.2209 193.804 19.8338 193.65 19.367 193.495C19.0414 193.382 18.7447 193.265 18.4769 193.142C18.2128 193.016 17.9866 192.871 17.7985 192.708C17.6103 192.542 17.4656 192.343 17.3643 192.112C17.2666 191.877 17.2177 191.601 17.2177 191.283C17.2177 190.845 17.3281 190.478 17.5488 190.182C17.7732 189.882 18.0753 189.656 18.4552 189.504C18.8387 189.349 19.2693 189.271 19.7469 189.271C20.1269 189.271 20.4869 189.307 20.827 189.38C21.1707 189.448 21.5018 189.553 21.8202 189.694L21.6248 190.177C21.3064 190.039 20.988 189.938 20.6696 189.873C20.3512 189.808 20.0364 189.776 19.7252 189.776C19.3525 189.776 19.0197 189.832 18.7266 189.944C18.4371 190.052 18.2074 190.216 18.0373 190.437C17.8672 190.657 17.7822 190.936 17.7822 191.272C17.7822 191.619 17.86 191.899 18.0156 192.112C18.1748 192.325 18.3991 192.502 18.6886 192.643C18.9817 192.784 19.3272 192.922 19.7252 193.055C20.1956 193.214 20.6009 193.382 20.941 193.56C21.2811 193.733 21.5434 193.954 21.728 194.221C21.9161 194.488 22.0102 194.837 22.0102 195.267Z" fill="#DED1D3"/>
<path d="M25.3752 191.418H25.9559L27.3888 195.159C27.4756 195.379 27.5516 195.583 27.6167 195.771C27.6855 195.956 27.7452 196.126 27.7959 196.281C27.8465 196.433 27.8881 196.572 27.9207 196.698H27.9532C28.0075 196.532 28.0799 196.319 28.1703 196.059C28.2608 195.795 28.3639 195.502 28.4797 195.181L29.8963 191.418H30.4824L27.7904 198.417C27.6602 198.757 27.5172 199.044 27.3617 199.279C27.2061 199.518 27.0233 199.696 26.8135 199.816C26.6036 199.939 26.3503 200 26.0536 200C25.9198 200 25.7985 199.989 25.69 199.967C25.5815 199.949 25.4765 199.924 25.3752 199.892V199.42C25.4693 199.449 25.5652 199.472 25.6629 199.49C25.7642 199.512 25.8745 199.523 25.9939 199.523C26.2002 199.523 26.3775 199.48 26.5258 199.393C26.6778 199.31 26.8135 199.18 26.9329 199.002C27.0523 198.825 27.1645 198.6 27.2694 198.325L27.671 197.279L25.3752 191.418Z" fill="#DED1D3"/>
<path d="M36.8271 191.304C37.4893 191.304 37.9977 191.478 38.3523 191.825C38.7068 192.172 38.8841 192.716 38.8841 193.457V197.311H38.3414V193.489C38.3414 192.904 38.2075 192.474 37.9398 192.199C37.672 191.924 37.283 191.787 36.7729 191.787C36.1252 191.787 35.6295 191.977 35.2857 192.356C34.9456 192.732 34.7756 193.301 34.7756 194.064V197.311H34.2274V191.418H34.6724L34.7538 192.492H34.7864C34.8913 192.271 35.0343 192.072 35.2152 191.895C35.3997 191.715 35.6259 191.572 35.8936 191.467C36.1614 191.359 36.4725 191.304 36.8271 191.304Z" fill="#DED1D3"/>
<path d="M45.9398 197.419C45.3537 197.419 44.858 197.298 44.4527 197.056C44.0511 196.811 43.7471 196.462 43.5409 196.01C43.3383 195.555 43.237 195.016 43.237 194.394C43.237 193.747 43.3546 193.195 43.5897 192.736C43.8249 192.273 44.156 191.919 44.583 191.673C45.0099 191.427 45.5111 191.304 46.0864 191.304C46.3686 191.304 46.6309 191.33 46.8734 191.38C47.1158 191.431 47.3347 191.501 47.5301 191.592L47.3835 192.074C47.1809 191.984 46.9656 191.915 46.7377 191.868C46.5097 191.821 46.2908 191.798 46.0809 191.798C45.5961 191.798 45.1836 191.904 44.8435 192.118C44.507 192.327 44.2483 192.627 44.0674 193.017C43.8901 193.404 43.8014 193.861 43.8014 194.389C43.8014 194.884 43.8774 195.323 44.0294 195.706C44.1813 196.086 44.4147 196.386 44.7295 196.606C45.0443 196.823 45.4477 196.932 45.9398 196.932C46.2257 196.932 46.497 196.903 46.7539 196.845C47.0145 196.787 47.2515 196.713 47.4649 196.623V197.121C47.2732 197.208 47.0506 197.279 46.7974 197.333C46.5477 197.391 46.2619 197.419 45.9398 197.419Z" fill="#DED1D3"/>
<path d="M57.8477 188.876V191.272C57.8477 191.478 57.844 191.704 57.8368 191.949C57.8296 192.195 57.8223 192.399 57.8151 192.562H57.8477C57.9888 192.197 58.2348 191.895 58.5858 191.657C58.9368 191.418 59.3746 191.299 59.8992 191.299C60.6663 191.299 61.2579 191.557 61.674 192.074C62.0937 192.591 62.3036 193.348 62.3036 194.346C62.3036 194.956 62.2095 195.493 62.0214 195.956C61.8332 196.415 61.5528 196.774 61.1801 197.035C60.8111 197.291 60.3479 197.419 59.7907 197.419C59.2877 197.419 58.8771 197.315 58.5587 197.105C58.2403 196.892 58.0087 196.626 57.8639 196.308H57.8205L57.7174 197.311H57.2995V188.876H57.8477ZM59.8395 191.776C59.3728 191.776 58.9929 191.877 58.6998 192.08C58.4067 192.278 58.1914 192.569 58.0539 192.952C57.9164 193.335 57.8477 193.804 57.8477 194.356V194.443C57.8477 195.256 57.996 195.876 58.2927 196.303C58.5894 196.729 59.0707 196.942 59.7364 196.942C60.3949 196.942 60.8925 196.718 61.229 196.27C61.5691 195.818 61.7391 195.177 61.7391 194.346C61.7391 193.496 61.5818 192.857 61.267 192.427C60.9522 191.993 60.4764 191.776 59.8395 191.776Z" fill="#DED1D3"/>
<path d="M71.6008 194.356C71.6008 194.812 71.5447 195.227 71.4326 195.603C71.3204 195.976 71.154 196.297 70.9333 196.568C70.7125 196.839 70.4375 197.049 70.1083 197.197C69.7826 197.345 69.4027 197.419 68.9685 197.419C68.556 197.419 68.1888 197.347 67.8667 197.203C67.5447 197.054 67.2715 196.845 67.0472 196.574C66.8265 196.303 66.6582 195.981 66.5424 195.609C66.4267 195.233 66.3688 194.815 66.3688 194.356C66.3688 193.724 66.4737 193.18 66.6836 192.725C66.897 192.266 67.201 191.915 67.5954 191.673C67.9934 191.427 68.4692 191.304 69.0228 191.304C69.5945 191.304 70.0703 191.434 70.4502 191.695C70.8338 191.951 71.1214 192.309 71.3132 192.768C71.5049 193.227 71.6008 193.757 71.6008 194.356ZM66.9332 194.356C66.9332 194.873 67.0074 195.325 67.1557 195.712C67.3041 196.099 67.5284 196.4 67.8288 196.617C68.1327 196.834 68.5162 196.942 68.9794 196.942C69.4534 196.942 69.8423 196.834 70.1463 196.617C70.4502 196.4 70.6745 196.097 70.8193 195.706C70.964 195.316 71.0364 194.866 71.0364 194.356C71.0364 193.861 70.9676 193.42 70.8301 193.034C70.6926 192.647 70.4755 192.343 70.1788 192.123C69.8821 191.899 69.495 191.787 69.0174 191.787C68.3335 191.787 67.8143 192.015 67.4597 192.47C67.1087 192.925 66.9332 193.554 66.9332 194.356Z" fill="#DED1D3"/>
<path d="M80.9035 194.356C80.9035 194.812 80.8474 195.227 80.7352 195.603C80.6231 195.976 80.4566 196.297 80.2359 196.568C80.0152 196.839 79.7402 197.049 79.4109 197.197C79.0853 197.345 78.7054 197.419 78.2712 197.419C77.8587 197.419 77.4914 197.347 77.1694 197.203C76.8474 197.054 76.5742 196.845 76.3499 196.574C76.1291 196.303 75.9609 195.981 75.8451 195.609C75.7293 195.233 75.6714 194.815 75.6714 194.356C75.6714 193.724 75.7764 193.18 75.9862 192.725C76.1997 192.266 76.5036 191.915 76.898 191.673C77.296 191.427 77.7718 191.304 78.3254 191.304C78.8971 191.304 79.3729 191.434 79.7529 191.695C80.1364 191.951 80.4241 192.309 80.6158 192.768C80.8076 193.227 80.9035 193.757 80.9035 194.356ZM76.2359 194.356C76.2359 194.873 76.3101 195.325 76.4584 195.712C76.6068 196.099 76.8311 196.4 77.1314 196.617C77.4353 196.834 77.8189 196.942 78.282 196.942C78.756 196.942 79.145 196.834 79.4489 196.617C79.7529 196.4 79.9772 196.097 80.1219 195.706C80.2667 195.316 80.339 194.866 80.339 194.356C80.339 193.861 80.2703 193.42 80.1328 193.034C79.9953 192.647 79.7782 192.343 79.4815 192.123C79.1848 191.899 78.7976 191.787 78.32 191.787C77.6362 191.787 77.1169 192.015 76.7623 192.47C76.4114 192.925 76.2359 193.554 76.2359 194.356Z" fill="#DED1D3"/>
<path d="M85.8588 188.876V193.131C85.8588 193.395 85.8551 193.664 85.8479 193.939C85.8443 194.21 85.8389 194.481 85.8316 194.752H85.8425C85.9474 194.629 86.056 194.501 86.1681 194.367C86.2839 194.23 86.3979 194.098 86.51 193.972L88.8439 191.418H89.506L87.1776 193.944L89.7122 197.311H89.0555L86.8031 194.308L85.8588 195.3V197.311H85.3106V188.876H85.8588Z" fill="#DED1D3"/>
<path d="M101.49 191.315C101.645 191.315 101.792 191.324 101.929 191.342C102.067 191.36 102.195 191.386 102.315 191.418L102.228 191.922C102.109 191.89 101.987 191.866 101.864 191.852C101.741 191.834 101.609 191.825 101.468 191.825C101.19 191.825 100.94 191.877 100.719 191.982C100.502 192.087 100.317 192.237 100.166 192.432C100.014 192.627 99.8978 192.862 99.8182 193.137C99.7386 193.411 99.6988 193.719 99.6988 194.058V197.311H99.1452V191.418H99.6174L99.6716 192.53H99.7042C99.7946 192.302 99.9213 192.098 100.084 191.917C100.251 191.733 100.451 191.586 100.687 191.478C100.922 191.369 101.19 191.315 101.49 191.315Z" fill="#DED1D3"/>
<path d="M108.486 191.304C108.989 191.304 109.407 191.422 109.74 191.657C110.076 191.892 110.326 192.213 110.489 192.622C110.655 193.03 110.738 193.498 110.738 194.026V194.422H106.478C106.478 195.231 106.664 195.853 107.037 196.286C107.413 196.72 107.95 196.937 108.649 196.937C109.014 196.937 109.331 196.908 109.598 196.85C109.87 196.789 110.17 196.686 110.499 196.541V197.045C110.21 197.176 109.92 197.27 109.631 197.327C109.342 197.389 109.009 197.419 108.632 197.419C108.035 197.419 107.534 197.297 107.129 197.051C106.727 196.801 106.423 196.451 106.217 195.999C106.015 195.547 105.913 195.02 105.913 194.416C105.913 193.827 106.011 193.298 106.206 192.828C106.405 192.358 106.695 191.987 107.075 191.716C107.458 191.442 107.929 191.304 108.486 191.304ZM108.48 191.776C107.916 191.776 107.458 191.964 107.107 192.34C106.76 192.712 106.555 193.251 106.494 193.955H110.168C110.168 193.525 110.107 193.146 109.984 192.817C109.861 192.488 109.674 192.233 109.425 192.052C109.179 191.868 108.864 191.776 108.48 191.776Z" fill="#DED1D3"/>
<path d="M117.202 191.315C117.85 191.315 118.335 191.478 118.657 191.803C118.979 192.128 119.14 192.647 119.14 193.359V197.311H118.717L118.619 196.281H118.586C118.46 196.501 118.306 196.698 118.125 196.872C117.944 197.042 117.722 197.176 117.457 197.273C117.197 197.371 116.878 197.419 116.502 197.419C116.122 197.419 115.797 197.356 115.525 197.23C115.257 197.103 115.049 196.919 114.901 196.677C114.756 196.435 114.684 196.14 114.684 195.793C114.684 195.208 114.926 194.763 115.411 194.459C115.896 194.152 116.593 193.979 117.501 193.939L118.597 193.885V193.457C118.597 192.853 118.478 192.423 118.239 192.166C118 191.91 117.647 191.781 117.181 191.781C116.877 191.781 116.584 191.821 116.301 191.901C116.023 191.977 115.739 192.087 115.449 192.231L115.276 191.776C115.558 191.642 115.86 191.532 116.182 191.445C116.508 191.359 116.848 191.315 117.202 191.315ZM118.592 194.313L117.561 194.356C116.812 194.393 116.242 194.526 115.851 194.758C115.46 194.989 115.265 195.336 115.265 195.799C115.265 196.171 115.38 196.456 115.612 196.655C115.847 196.854 116.173 196.953 116.589 196.953C117.237 196.953 117.731 196.769 118.071 196.4C118.414 196.032 118.588 195.529 118.592 194.893V194.313Z" fill="#DED1D3"/>
<path d="M125.951 197.419C125.144 197.419 124.529 197.166 124.106 196.661C123.686 196.151 123.476 195.41 123.476 194.438C123.476 193.419 123.699 192.642 124.144 192.107C124.589 191.572 125.21 191.304 126.006 191.304C126.346 191.304 126.641 191.357 126.89 191.462C127.144 191.566 127.355 191.709 127.525 191.89C127.699 192.067 127.833 192.269 127.927 192.497H127.97C127.956 192.305 127.945 192.099 127.938 191.879C127.931 191.659 127.927 191.456 127.927 191.272V188.876H128.475V197.311H128.03L127.96 196.232H127.927C127.829 196.449 127.694 196.648 127.52 196.829C127.35 197.009 127.136 197.154 126.879 197.262C126.623 197.367 126.313 197.419 125.951 197.419ZM126.011 196.942C126.706 196.942 127.2 196.727 127.493 196.297C127.786 195.864 127.932 195.246 127.932 194.443V194.356C127.932 193.525 127.786 192.889 127.493 192.448C127.2 192.004 126.722 191.781 126.06 191.781C125.405 191.781 124.904 192.009 124.557 192.464C124.213 192.92 124.041 193.581 124.041 194.449C124.041 195.265 124.202 195.885 124.524 196.308C124.85 196.731 125.345 196.942 126.011 196.942Z" fill="#DED1D3"/>
<path d="M135.449 191.304C135.952 191.304 136.37 191.422 136.703 191.657C137.04 191.892 137.289 192.213 137.452 192.622C137.619 193.03 137.702 193.498 137.702 194.026V194.422H133.441C133.441 195.231 133.628 195.853 134 196.286C134.377 196.72 134.914 196.937 135.612 196.937C135.978 196.937 136.294 196.908 136.562 196.85C136.833 196.789 137.134 196.686 137.463 196.541V197.045C137.174 197.176 136.884 197.27 136.595 197.327C136.305 197.389 135.972 197.419 135.596 197.419C134.999 197.419 134.498 197.297 134.093 197.051C133.691 196.801 133.387 196.451 133.181 195.999C132.978 195.547 132.877 195.02 132.877 194.416C132.877 193.827 132.974 193.298 133.17 192.828C133.369 192.358 133.658 191.987 134.038 191.716C134.422 191.442 134.892 191.304 135.449 191.304ZM135.444 191.776C134.88 191.776 134.422 191.964 134.071 192.34C133.723 192.712 133.519 193.251 133.458 193.955H137.132C137.132 193.525 137.07 193.146 136.947 192.817C136.824 192.488 136.638 192.233 136.388 192.052C136.142 191.868 135.828 191.776 135.444 191.776Z" fill="#DED1D3"/>
<path d="M144.454 191.315C144.609 191.315 144.756 191.324 144.893 191.342C145.031 191.36 145.159 191.386 145.279 191.418L145.192 191.922C145.072 191.89 144.951 191.866 144.828 191.852C144.705 191.834 144.573 191.825 144.432 191.825C144.153 191.825 143.904 191.877 143.683 191.982C143.466 192.087 143.281 192.237 143.129 192.432C142.977 192.627 142.861 192.862 142.782 193.137C142.702 193.411 142.662 193.719 142.662 194.058V197.311H142.109V191.418H142.581L142.635 192.53H142.668C142.758 192.302 142.885 192.098 143.048 191.917C143.214 191.733 143.415 191.586 143.65 191.478C143.885 191.369 144.153 191.315 144.454 191.315Z" fill="#DED1D3"/>
<path d="M152.696 106.192C153.751 106.176 154.665 106.195 155.405 106.259C156.131 106.321 156.739 106.429 157.153 106.611C158.561 107.23 159.466 108.017 159.953 108.893C160.444 109.775 160.483 110.698 160.252 111.52C160.024 112.333 159.532 113.051 158.948 113.566C158.373 114.074 157.654 114.43 156.952 114.426C155.857 114.42 145.909 114.066 133.539 115.115C121.179 116.163 106.475 118.607 95.7964 124.156C93.1884 126.863 91.096 128.968 88.8443 130.514C86.6395 132.027 81.5904 133.573 81.0982 133.573C80.6066 133.573 75.3453 132.027 73.1406 130.514C70.8889 128.968 68.7964 126.862 66.1885 124.156C55.5103 118.607 40.8062 116.163 28.4463 115.115C16.0762 114.066 6.12829 114.42 5.03289 114.426C4.33112 114.43 3.6123 114.074 3.03652 113.566C2.45334 113.051 1.96137 112.333 1.73269 111.52C1.50175 110.698 1.54159 109.775 2.03229 108.893C2.51962 108.017 3.42392 107.23 4.83223 106.611C5.24617 106.429 5.85414 106.321 6.57987 106.259C7.3199 106.195 8.23349 106.176 9.28864 106.192C11.4003 106.224 14.1143 106.405 17.2137 106.699C23.4143 107.289 31.1914 108.339 38.8562 109.587C46.5206 110.835 54.0838 112.284 59.8539 113.673C62.7368 114.367 65.1846 115.049 66.9769 115.687C67.8715 116.006 68.6185 116.319 69.1786 116.623C69.4584 116.776 69.7033 116.932 69.9 117.093C70.0918 117.25 70.268 117.435 70.3714 117.653C71.2687 119.546 73.4462 121.646 75.7362 123.316C76.8715 124.144 78.0147 124.853 79.0066 125.364C79.8328 125.79 80.623 126.1 81.0982 126.207C81.5734 126.1 82.1522 125.79 82.9783 125.364C83.9702 124.853 85.1133 124.145 86.2487 123.316C88.5387 121.646 90.7166 119.546 91.6138 117.653C91.7173 117.435 91.8933 117.25 92.0852 117.093C92.282 116.932 92.5264 116.776 92.8063 116.623C93.3664 116.319 94.1132 116.006 95.008 115.687C96.8004 115.049 99.2482 114.367 102.131 113.673C107.901 112.284 115.464 110.835 123.129 109.587C130.794 108.339 138.571 107.289 144.772 106.699C147.871 106.405 150.585 106.224 152.696 106.192Z" fill="#FFB2BE" fill-opacity="0.8"/>
<path d="M10.1214 101.063C11.2481 100.993 12.8567 101 14.8349 101.091C18.7926 101.272 24.2452 101.789 30.3168 102.699C42.4558 104.518 57.0932 107.909 67.2101 113.34C67.2158 113.343 67.2218 113.346 67.2275 113.349C67.8019 113.649 68.353 113.959 68.8784 114.279C68.8814 114.281 68.8846 114.283 68.8877 114.285C68.8883 114.285 68.8889 114.285 68.8895 114.286L68.7261 114.557C68.7255 114.557 68.7248 114.557 68.7242 114.556C68.7205 114.554 68.7165 114.552 68.7127 114.55C68.1797 114.235 67.6312 113.926 67.0684 113.624C67.0662 113.623 67.0638 113.621 67.0616 113.62C58.1917 108.992 43.5982 106.609 30.9771 105.407C24.6709 104.806 18.8644 104.501 14.5232 104.356C10.1766 104.21 7.30976 104.226 6.87482 104.266C6.63831 104.288 6.44106 104.271 6.30757 104.185C6.23506 104.138 6.18339 104.072 6.15901 103.991C6.13575 103.913 6.14056 103.833 6.15746 103.761C6.1906 103.619 6.27927 103.464 6.38697 103.314C6.49705 103.161 6.63773 102.997 6.79015 102.836C7.09521 102.512 7.45728 102.185 7.74135 101.94C7.88365 101.818 8.00724 101.715 8.09522 101.643C8.13911 101.607 8.17429 101.578 8.1985 101.559C8.19955 101.558 8.20059 101.557 8.2016 101.556C8.2428 101.468 8.32365 101.407 8.4004 101.365C8.50121 101.31 8.63507 101.265 8.79272 101.228C9.10986 101.153 9.55913 101.098 10.1214 101.063Z" fill="#FFB2BE" fill-opacity="0.8"/>
<path d="M147.786 101.091C149.765 101 151.373 100.993 152.5 101.063C153.062 101.098 153.511 101.153 153.829 101.228C153.986 101.265 154.12 101.31 154.221 101.365C154.298 101.407 154.378 101.468 154.42 101.556C154.421 101.557 154.422 101.558 154.423 101.559C154.447 101.578 154.482 101.607 154.526 101.643C154.614 101.715 154.738 101.818 154.88 101.94C155.164 102.185 155.526 102.512 155.831 102.836C155.984 102.997 156.124 103.161 156.234 103.314C156.342 103.464 156.431 103.619 156.464 103.761C156.481 103.833 156.486 103.913 156.462 103.991C156.438 104.072 156.386 104.138 156.314 104.185C156.18 104.271 155.983 104.288 155.746 104.266C155.311 104.226 152.445 104.21 148.098 104.356C143.757 104.501 137.95 104.806 131.644 105.407C119.023 106.609 104.43 108.992 95.5597 113.62C95.5575 113.622 95.5551 113.623 95.5529 113.624C94.9901 113.926 94.4416 114.235 93.9085 114.55C93.9048 114.552 93.9008 114.554 93.8971 114.556C93.8964 114.557 93.8958 114.557 93.8952 114.557L93.7318 114.286C93.7325 114.285 93.7332 114.285 93.7339 114.285C93.737 114.283 93.7398 114.281 93.7429 114.279C94.2684 113.959 94.8194 113.649 95.3938 113.349C95.3995 113.346 95.4054 113.343 95.4112 113.34C105.528 107.909 120.165 104.518 132.305 102.699C138.376 101.789 143.829 101.272 147.786 101.091Z" fill="#FFB2BE" fill-opacity="0.8"/>
<path d="M17.302 95.7634C21.2972 95.8024 26.6985 96.0987 32.7511 96.9771C44.8527 98.7335 59.5777 102.819 70.8729 111.843L70.6933 112.103C58.4875 104.941 43.7969 101.451 31.8253 99.7807C19.854 98.1105 10.6187 98.2626 9.33237 98.3746C9.00147 98.4034 8.73437 98.4041 8.52569 98.3795C8.32086 98.3553 8.15347 98.3046 8.03846 98.2153C7.91168 98.1168 7.86015 97.9796 7.88122 97.8315C7.90035 97.6976 7.97681 97.5663 8.07351 97.4464C8.2692 97.2039 8.60037 96.9446 8.9816 96.7107C9.36553 96.4751 9.81212 96.2575 10.2485 96.1026C10.375 96.0577 10.6349 96.0144 10.996 95.9737C11.3641 95.9322 11.8551 95.8919 12.4558 95.8575C13.6576 95.7888 15.3046 95.7439 17.302 95.7634Z" fill="#FFB2BE" fill-opacity="0.8"/>
<path d="M144.103 95.7634C146.1 95.7439 147.747 95.7888 148.949 95.8575C149.55 95.8919 150.04 95.9322 150.409 95.9737C150.77 96.0144 151.03 96.0577 151.156 96.1026C151.592 96.2575 152.039 96.4751 152.423 96.7107C152.804 96.9446 153.135 97.2039 153.331 97.4464C153.428 97.5663 153.504 97.6976 153.523 97.8315C153.544 97.9795 153.493 98.1168 153.366 98.2153C153.251 98.3046 153.084 98.3553 152.879 98.3795C152.67 98.4041 152.403 98.4034 152.072 98.3746C150.786 98.2626 141.551 98.1105 129.579 99.7807C117.608 101.451 102.917 104.941 90.7113 112.103L90.5317 111.843C101.827 102.819 116.552 98.7334 128.654 96.9771C134.706 96.0987 140.107 95.8024 144.103 95.7634Z" fill="#FFB2BE" fill-opacity="0.8"/>
<path d="M145.178 32.7437L145.17 32.9094C144.792 40.6434 144.873 48.0566 144.142 54.8283C143.41 61.6069 141.863 67.7757 138.213 73.0428C135.976 76.2711 132.954 79.1537 128.856 81.6306C131.676 81.3765 134.644 81.1823 137.815 81.056C137.618 80.7686 137.354 80.4134 137.072 80.0356L137.027 79.9755C136.701 79.5375 136.357 79.0764 136.096 78.6908C135.96 78.4901 135.837 78.2968 135.75 78.1307C135.707 78.0482 135.666 77.9593 135.637 77.8726C135.612 77.7999 135.573 77.6653 135.595 77.5151C135.628 77.3049 135.763 76.9694 135.938 76.6289C136.124 76.2694 136.386 75.8437 136.715 75.447C137.351 74.681 138.365 73.8782 139.631 74.1639C139.99 74.2449 140.411 74.5083 140.826 74.8209C141.261 75.1486 141.76 75.5848 142.289 76.0849C143.348 77.0863 144.558 78.3734 145.67 79.6415C146.782 80.9094 147.807 82.1697 148.494 83.1182C148.835 83.5878 149.108 84.0003 149.265 84.3066C149.336 84.4465 149.415 84.6236 149.433 84.7929C149.441 84.8759 149.445 85.0457 149.334 85.2062C149.201 85.3964 149.002 85.4459 148.865 85.446H148.859C148.856 85.446 148.851 85.4471 148.845 85.4472C148.833 85.4475 148.817 85.4474 148.798 85.4481C148.759 85.4496 148.706 85.4515 148.64 85.4546C148.509 85.4609 148.327 85.4708 148.099 85.4844C147.641 85.5115 146.997 85.5548 146.188 85.617C144.57 85.7414 142.296 85.9428 139.559 86.2545C134.084 86.8781 126.756 87.9393 119.096 89.6863C111.432 91.434 103.452 93.8645 96.6644 97.2225C89.9747 100.532 84.0077 105.228 81.0982 110.492C78.1887 105.228 72.1417 100.532 65.4519 97.2225C58.6645 93.8645 50.6847 91.434 43.021 89.6863C35.3605 87.9394 28.0324 86.8781 22.5574 86.2545C19.8205 85.9428 17.5468 85.7414 15.9287 85.617C15.1202 85.5548 14.4752 85.5115 14.018 85.4844C13.7895 85.4708 13.6075 85.4609 13.4765 85.4546C13.4111 85.4515 13.358 85.4496 13.3189 85.4481C13.2997 85.4474 13.2836 85.4475 13.2718 85.4472C13.2661 85.4471 13.261 85.4461 13.2575 85.446H13.2516C13.1151 85.4459 12.9152 85.3964 12.783 85.2062C12.6717 85.0457 12.6754 84.8759 12.6841 84.7929C12.702 84.6235 12.7807 84.4465 12.8521 84.3066C13.0086 84.0003 13.2817 83.5878 13.6222 83.1182C14.3101 82.1697 15.3344 80.9095 16.4464 79.6415C17.5586 78.3733 18.7679 77.0863 19.8272 76.0849C20.3563 75.5847 20.8555 75.1487 21.2908 74.8209C21.7061 74.5083 22.1267 74.2449 22.4854 74.1639C23.752 73.8784 24.7661 74.681 25.4017 75.447C25.7306 75.8437 25.9928 76.2695 26.1783 76.6289C26.3539 76.9693 26.4892 77.3049 26.5213 77.5151C26.544 77.6653 26.5042 77.7999 26.4797 77.8726C26.4504 77.9593 26.4098 78.0482 26.3665 78.1307C26.2793 78.2968 26.1568 78.4901 26.021 78.6908C25.76 79.0764 25.4161 79.5375 25.0894 79.9755L25.0444 80.0356C24.7625 80.4134 24.4986 80.7686 24.301 81.056C27.6707 81.1901 30.8106 81.4016 33.7869 81.6796C29.68 79.1917 26.6559 76.2921 24.4213 73.0425C20.7996 67.7755 19.2646 61.6067 18.5386 54.8283C17.8133 48.0566 17.8938 40.6435 17.5182 32.9094L17.5101 32.7437L17.6764 32.7431C30.9045 32.7156 44.733 33.9497 56.2888 40.1795C67.7125 46.3381 76.8954 57.3682 81.0988 76.8271C85.3348 57.3675 94.5892 46.3376 106.101 40.1792C117.746 33.9496 131.681 32.7156 145.012 32.7431L145.178 32.7437Z" fill="#FFB2BE" fill-opacity="0.8"/>
<path d="M13.2476 89.7074C25.9537 89.4154 35.8058 90.3482 45.1911 93.2882C54.576 96.2281 63.4842 101.172 74.3071 108.889L74.1312 109.153C45.1772 91.2351 13.4975 93.3243 11.2946 93.462C11.0096 93.4798 10.7806 93.4608 10.6089 93.3994C10.4313 93.3359 10.3035 93.2214 10.2578 93.0531C10.2154 92.8964 10.2538 92.7257 10.3239 92.5639C10.3953 92.399 10.5095 92.2211 10.6502 92.0382C11.2106 91.3096 12.2693 90.405 13.1561 89.7393L13.1967 89.7086L13.2476 89.7074Z" fill="#FFB2BE" fill-opacity="0.8"/>
<path d="M118.086 93.2882C127.471 90.3481 137.323 89.4155 150.029 89.7074L150.08 89.7086L150.121 89.7393C151.007 90.405 152.066 91.3097 152.626 92.0382C152.767 92.221 152.881 92.399 152.953 92.5639C153.023 92.7257 153.061 92.8964 153.019 93.0531C152.973 93.2215 152.845 93.3359 152.668 93.3994C152.496 93.4607 152.267 93.4798 151.982 93.462C149.778 93.3242 118.099 91.2354 89.1454 109.153L88.9696 108.889C99.7924 101.172 108.701 96.2282 118.086 93.2882Z" fill="#FFB2BE" fill-opacity="0.8"/>
<path d="M81.0982 0C81.0982 0 102.626 20.2549 107.139 37.1953L107.246 37.6008L106.863 37.7706C99.5183 41.025 94.5661 44.3336 90.7696 48.8553C86.9676 53.3837 83.8247 59.5044 81.0982 67.7687C78.3717 59.5044 75.2288 53.3837 71.4268 48.8553C67.6303 44.3337 62.6784 41.025 55.3333 37.7706L54.95 37.6008L55.0576 37.1953C59.5678 20.2654 81.0715 0.025106 81.0982 0Z" fill="#FFB2BE" fill-opacity="0.8"/>
<path d="M41.8168 11.6346C48.9566 13.9998 52.8078 14.9232 60.0428 19.5084L60.1609 19.5834L60.1014 19.7098C57.8661 24.4584 56.407 28.439 53.7144 35.4141L53.6638 35.5451L53.5277 35.5107C48.381 34.2171 43.8074 33.0881 40.4701 32.0482C38.8021 31.5285 37.4352 31.0283 36.4572 30.5383C35.9685 30.2935 35.5702 30.0481 35.279 29.7995C34.9899 29.5526 34.7909 29.2895 34.7288 29.0068L34.7201 28.968L34.731 28.9296C36.9644 21.0375 39.3693 16.4508 41.6235 11.717L41.6837 11.5906L41.8168 11.6346Z" fill="#FFB2BE" fill-opacity="0.8"/>
<path d="M121.064 11.717C123.319 16.4508 125.724 21.0375 127.957 28.9296L127.968 28.968L127.959 29.0068C127.897 29.2895 127.698 29.5527 127.409 29.7995C127.118 30.0481 126.719 30.2935 126.231 30.5383C125.253 31.0283 123.886 31.5285 122.218 32.0482C118.881 33.0881 114.307 34.2171 109.16 35.5107L109.024 35.5451L108.974 35.4141C106.281 28.439 104.822 24.4584 102.587 19.7098L102.527 19.5834L102.645 19.5084C109.88 14.9233 113.731 13.9998 120.871 11.6346L121.004 11.5906L121.064 11.717Z" fill="#FFB2BE" fill-opacity="0.8"/>
</svg>
